<svg width="32" height="32" viewBox="0 0 32 32" fill="none" xmlns="http://www.w3.org/2000/svg">
<g clip-path="url(#clip0_42_86)">
<rect x="1" y="1" width="22" height="29" rx="1" fill="white"/>
<rect x="0.5" y="0.5" width="23" height="5" fill="url(#paint0_linear_42_86)" stroke="#AAAAAA"/>
<rect x="0.5" y="5.5" width="23" height="5" fill="url(#paint1_linear_42_86)" stroke="#AAAAAA"/>
<rect x="1" y="11" width="22" height="4" fill="url(#paint2_linear_42_86)"/>
<rect x="0.5" y="15.5" width="23" height="5" fill="url(#paint3_linear_42_86)" stroke="#AAAAAA"/>
<rect x="0.5" y="20.5" width="23" height="5" fill="url(#paint4_linear_42_86)" stroke="#AAAAAA"/>
<rect x="0.5" y="25.5" width="23" height="5" fill="url(#paint5_linear_42_86)" stroke="#AAAAAA"/>
</g>
<rect x="0.5" y="0.5" width="23" height="30" rx="1.5" stroke="#777777"/>
<rect x="0.5" y="10.5" width="23" height="5" fill="url(#paint6_linear_42_86)" stroke="#0037CF"/>
<path d="M12 12L14 13L12 14V12Z" fill="white"/>
<g clip-path="url(#clip1_42_86)">
<rect x="16" y="11" width="15" height="14" rx="1" fill="white"/>
<rect x="15.5" y="10.5" width="16" height="5" fill="url(#paint7_linear_42_86)" stroke="#AAAAAA"/>
<rect x="15.5" y="15.5" width="16" height="5" fill="url(#paint8_linear_42_86)" stroke="#AAAAAA"/>
<rect x="15.5" y="20.5" width="16" height="5" fill="url(#paint9_linear_42_86)" stroke="#AAAAAA"/>
</g>
<rect x="15.5" y="10.5" width="16" height="15" rx="1.5" stroke="#777777"/>
<defs>
<linearGradient id="paint0_linear_42_86" x1="12" y1="1" x2="12" y2="5" gradientUnits="userSpaceOnUse">
<stop stop-color="#DDDDDD"/>
<stop offset="1" stop-color="#CCCCCC"/>
</linearGradient>
<linearGradient id="paint1_linear_42_86" x1="12" y1="6" x2="12" y2="10" gradientUnits="userSpaceOnUse">
<stop stop-color="#DDDDDD"/>
<stop offset="1" stop-color="#CCCCCC"/>
</linearGradient>
<linearGradient id="paint2_linear_42_86" x1="12" y1="11" x2="12" y2="15" gradientUnits="userSpaceOnUse">
<stop stop-color="#20BCFF"/>
<stop offset="1" stop-color="#0063ED"/>
</linearGradient>
<linearGradient id="paint3_linear_42_86" x1="12" y1="16" x2="12" y2="20" gradientUnits="userSpaceOnUse">
<stop stop-color="#DDDDDD"/>
<stop offset="1" stop-color="#CCCCCC"/>
</linearGradient>
<linearGradient id="paint4_linear_42_86" x1="12" y1="21" x2="12" y2="25" gradientUnits="userSpaceOnUse">
<stop stop-color="#DDDDDD"/>
<stop offset="1" stop-color="#CCCCCC"/>
</linearGradient>
<linearGradient id="paint5_linear_42_86" x1="12" y1="26" x2="12" y2="30" gradientUnits="userSpaceOnUse">
<stop stop-color="#DDDDDD"/>
<stop offset="1" stop-color="#CCCCCC"/>
</linearGradient>
<linearGradient id="paint6_linear_42_86" x1="12" y1="11" x2="12" y2="15" gradientUnits="userSpaceOnUse">
<stop stop-color="#20BCFF"/>
<stop offset="1" stop-color="#0063ED"/>
</linearGradient>
<linearGradient id="paint7_linear_42_86" x1="23.5" y1="11" x2="23.5" y2="15" gradientUnits="userSpaceOnUse">
<stop stop-color="white"/>
<stop offset="1" stop-color="#DDDDDD"/>
</linearGradient>
<linearGradient id="paint8_linear_42_86" x1="23.5" y1="16" x2="23.5" y2="20" gradientUnits="userSpaceOnUse">
<stop stop-color="white"/>
<stop offset="1" stop-color="#DDDDDD"/>
</linearGradient>
<linearGradient id="paint9_linear_42_86" x1="23.5" y1="21" x2="23.5" y2="25" gradientUnits="userSpaceOnUse">
<stop stop-color="white"/>
<stop offset="1" stop-color="#DDDDDD"/>
</linearGradient>
<clipPath id="clip0_42_86">
<rect x="1" y="1" width="22" height="29" rx="1" fill="white"/>
</clipPath>
<clipPath id="clip1_42_86">
<rect x="16" y="11" width="15" height="14" rx="1" fill="white"/>
</clipPath>
</defs>
</svg>
