<svg width="32" height="32" viewBox="0 0 32 32" fill="none" xmlns="http://www.w3.org/2000/svg">
<g clip-path="url(#clip0_42_85)">
<mask id="path-1-outside-1_42_85" maskUnits="userSpaceOnUse" x="0" y="0" width="32" height="32" fill="black">
<rect fill="white" width="32" height="32"/>
<path d="M16 2C23.732 2 30 8.26801 30 16C30 23.732 23.732 30 16 30C8.26801 30 2 23.732 2 16C2 8.26801 8.26801 2 16 2ZM16 12C13.7909 12 12 13.7909 12 16C12 18.2091 13.7909 20 16 20C18.2091 20 20 18.2091 20 16C20 13.7909 18.2091 12 16 12Z"/>
</mask>
<path d="M16 2C23.732 2 30 8.26801 30 16C30 23.732 23.732 30 16 30C8.26801 30 2 23.732 2 16C2 8.26801 8.26801 2 16 2ZM16 12C13.7909 12 12 13.7909 12 16C12 18.2091 13.7909 20 16 20C18.2091 20 20 18.2091 20 16C20 13.7909 18.2091 12 16 12Z" fill="url(#paint0_radial_42_85)"/>
<path d="M16 2V4C22.6274 4 28 9.37258 28 16H30H32C32 7.16344 24.8366 0 16 0V2ZM30 16H28C28 22.6274 22.6274 28 16 28V30V32C24.8366 32 32 24.8366 32 16H30ZM16 30V28C9.37258 28 4 22.6274 4 16H2H0C0 24.8366 7.16344 32 16 32V30ZM2 16H4C4 9.37258 9.37258 4 16 4V2V0C7.16344 0 0 7.16344 0 16H2ZM16 12V10C12.6863 10 10 12.6863 10 16H12H14C14 14.8954 14.8954 14 16 14V12ZM12 16H10C10 19.3137 12.6863 22 16 22V20V18C14.8954 18 14 17.1046 14 16H12ZM16 20V22C19.3137 22 22 19.3137 22 16H20H18C18 17.1046 17.1046 18 16 18V20ZM20 16H22C22 12.6863 19.3137 10 16 10V12V14C17.1046 14 18 14.8954 18 16H20Z" fill="#AAAAAA" mask="url(#path-1-outside-1_42_85)"/>
<path d="M28.557 12.6354C27.9664 10.4311 26.806 8.42122 25.1924 6.80761C23.5788 5.19401 21.5689 4.03359 19.3647 3.44297L17.3459 10.9772C18.2275 11.2134 19.0315 11.6776 19.677 12.323C20.3224 12.9685 20.7866 13.7725 21.0228 14.6541L28.557 12.6354Z" fill="white"/>
<path d="M3.44296 19.3646C4.03358 21.5689 5.19401 23.5788 6.80761 25.1924C8.42121 26.806 10.4311 27.9664 12.6353 28.557L14.6541 21.0228C13.7725 20.7866 12.9685 20.3224 12.323 19.677C11.6776 19.0315 11.2134 18.2275 10.9772 17.3459L3.44296 19.3646Z" fill="white" fill-opacity="0.75"/>
</g>
<defs>
<radialGradient id="paint0_radial_42_85" cx="0" cy="0" r="1" gradientUnits="userSpaceOnUse" gradientTransform="translate(19.5 11.5) rotate(135) scale(20.5061)">
<stop stop-color="#F0F0F0"/>
<stop offset="1" stop-color="#DDDDDD"/>
</radialGradient>
<clipPath id="clip0_42_85">
<rect width="32" height="32" fill="white"/>
</clipPath>
</defs>
</svg>
