<svg width="32" height="32" viewBox="0 0 32 32" fill="none" xmlns="http://www.w3.org/2000/svg">
<path d="M15.2412 30.8828C15.6403 31.3479 16.3597 31.3479 16.7588 30.8828L27.2705 18.6191C27.9199 17.8611 27.1798 16.7239 26.2236 17.0107L18.5 19.3281V1.5C18.5 0.947716 18.0523 0.5 17.5 0.5H14.5C13.9477 0.5 13.5 0.947716 13.5 1.5V19.3281L5.77637 17.0107C4.82019 16.7239 4.08009 17.8611 4.72949 18.6191L15.2412 30.8828Z" fill="url(#paint0_linear_110_132)"/>
<path d="M15.2412 30.8828C15.6403 31.3479 16.3597 31.3479 16.7588 30.8828L27.2705 18.6191C27.9199 17.8611 27.1798 16.7239 26.2236 17.0107L18.5 19.3281V1.5C18.5 0.947716 18.0523 0.5 17.5 0.5H14.5C13.9477 0.5 13.5 0.947716 13.5 1.5V19.3281L5.77637 17.0107C4.82019 16.7239 4.08009 17.8611 4.72949 18.6191L15.2412 30.8828Z" fill="url(#paint1_linear_110_132)" fill-opacity="0.4"/>
<path d="M15.2412 30.8828C15.6403 31.3479 16.3597 31.3479 16.7588 30.8828L27.2705 18.6191C27.9199 17.8611 27.1798 16.7239 26.2236 17.0107L18.5 19.3281V1.5C18.5 0.947716 18.0523 0.5 17.5 0.5H14.5C13.9477 0.5 13.5 0.947716 13.5 1.5V19.3281L5.77637 17.0107C4.82019 16.7239 4.08009 17.8611 4.72949 18.6191L15.2412 30.8828Z" stroke="#0037CF"/>
<defs>
<linearGradient id="paint0_linear_110_132" x1="16" y1="31" x2="16" y2="1" gradientUnits="userSpaceOnUse">
<stop stop-color="#0063ED"/>
<stop offset="1" stop-color="#20BCFF"/>
</linearGradient>
<linearGradient id="paint1_linear_110_132" x1="16" y1="31" x2="16" y2="1" gradientUnits="userSpaceOnUse">
<stop offset="0.5" stop-color="white" stop-opacity="0"/>
<stop offset="0.5" stop-color="white" stop-opacity="0.5"/>
<stop offset="1" stop-color="white"/>
</linearGradient>
</defs>
</svg>
