<svg width="32" height="32" viewBox="0 0 32 32" fill="none" xmlns="http://www.w3.org/2000/svg">
<path d="M27.5 31.5H4.5V0.5H17.1914L17.335 0.62793L27.335 9.62793L27.5 9.77734V31.5Z" fill="url(#paint0_linear_42_82)" stroke="#666666"/>
<path d="M16.8086 0.538086C16.9866 0.464343 17.1917 0.499021 17.335 0.62793L27.335 9.62793C27.4856 9.76352 27.5388 9.97709 27.4707 10.168C27.4026 10.3588 27.2259 10.4894 27.0234 10.499L16.5234 10.999C16.3824 11.0056 16.2451 10.9526 16.1455 10.8525C16.0459 10.7524 15.9936 10.6147 16.001 10.4736L16.501 0.973633L16.5098 0.902344C16.542 0.740203 16.653 0.602561 16.8086 0.538086Z" fill="url(#paint1_linear_42_82)" stroke="#666666" stroke-linejoin="round"/>
<defs>
<linearGradient id="paint0_linear_42_82" x1="27" y1="4.5" x2="4" y2="27.5" gradientUnits="userSpaceOnUse">
<stop stop-color="white"/>
<stop offset="1" stop-color="#CCCCCC"/>
</linearGradient>
<linearGradient id="paint1_linear_42_82" x1="27" y1="4.5" x2="4" y2="27.5" gradientUnits="userSpaceOnUse">
<stop stop-color="white"/>
<stop offset="1" stop-color="#CCCCCC"/>
</linearGradient>
</defs>
</svg>
