<svg width="32" height="32" viewBox="0 0 32 32" fill="none" xmlns="http://www.w3.org/2000/svg">
<g clip-path="url(#clip0_42_84)">
<rect x="0.5" y="0.5" width="31" height="31" rx="2.5" fill="url(#paint0_linear_42_84)" stroke="#63007E"/>
<mask id="path-2-outside-1_42_84" maskUnits="userSpaceOnUse" x="4" y="0" width="24" height="18" fill="black">
<rect fill="white" x="4" width="24" height="18"/>
<path d="M5 15C5 16.1046 5.89543 17 7 17H25C26.1046 17 27 16.1046 27 15V0H5V15Z"/>
</mask>
<path d="M5 15C5 16.1046 5.89543 17 7 17H25C26.1046 17 27 16.1046 27 15V0H5V15Z" fill="#DDDDDD"/>
<path d="M4 15C4 16.6569 5.34315 18 7 18H25C26.6569 18 28 16.6569 28 15H26C26 15.5523 25.5523 16 25 16H7C6.44772 16 6 15.5523 6 15H4ZM27 0H5H27ZM4 0V15C4 16.6569 5.34315 18 7 18V16C6.44772 16 6 15.5523 6 15V0H4ZM25 18C26.6569 18 28 16.6569 28 15V0H26V15C26 15.5523 25.5523 16 25 16V18Z" fill="black" fill-opacity="0.2" mask="url(#path-2-outside-1_42_84)"/>
<path d="M5 22C5 20.8954 5.89543 20 7 20H25C26.1046 20 27 20.8954 27 22V31H5V22Z" fill="#CCCCCC"/>
<path d="M25 19.5C26.3807 19.5 27.5 20.6193 27.5 22V31.5H4.5V22C4.5 20.6193 5.61929 19.5 7 19.5H25Z" stroke="black" stroke-opacity="0.2"/>
<mask id="path-6-inside-2_42_84" fill="white">
<path d="M5 22C5 20.8954 5.89543 20 7 20H25C26.1046 20 27 20.8954 27 22V31H5V22Z"/>
</mask>
<path d="M5 22C5 20.8954 5.89543 20 7 20H25C26.1046 20 27 20.8954 27 22V31H5V22Z" fill="#CCCCCC"/>
<path d="M4 22C4 20.3431 5.34315 19 7 19H25C26.6569 19 28 20.3431 28 22H26C26 21.4477 25.5523 21 25 21H7C6.44772 21 6 21.4477 6 22H4ZM27 31H5H27ZM4 31V22C4 20.3431 5.34315 19 7 19V21C6.44772 21 6 21.4477 6 22V31H4ZM25 19C26.6569 19 28 20.3431 28 22V31H26V22C26 21.4477 25.5523 21 25 21V19Z" fill="black" fill-opacity="0.2" mask="url(#path-6-inside-2_42_84)"/>
<mask id="path-8-inside-3_42_84" fill="white">
<path d="M5 15C5 16.1046 5.89543 17 7 17H25C26.1046 17 27 16.1046 27 15V0H5V15Z"/>
</mask>
<path d="M5 15C5 16.1046 5.89543 17 7 17H25C26.1046 17 27 16.1046 27 15V0H5V15Z" fill="url(#paint1_linear_42_84)"/>
<path d="M27 0V-1H28V0H27ZM5 0H4V-1H5V0ZM7 17V16H25V17V18H7V17ZM27 15H26V0H27H28V15H27ZM27 0V1H5V0V-1H27V0ZM5 0H6V15H5H4V0H5ZM25 17V16C25.5523 16 26 15.5523 26 15H27H28C28 16.6569 26.6569 18 25 18V17ZM7 17V18C5.34315 18 4 16.6569 4 15H5H6C6 15.5523 6.44772 16 7 16V17Z" fill="black" fill-opacity="0.2" mask="url(#path-8-inside-3_42_84)"/>
<rect x="13.5" y="21.5" width="12" height="9" rx="0.5" fill="#444444" stroke="#555555"/>
<rect x="21" y="23" width="3" height="5" fill="#666666"/>
<rect x="7" y="4" width="18" height="1" fill="#C1C8F9"/>
<rect x="7" y="7" width="18" height="1" fill="#B4BDF8"/>
<rect x="7" y="10" width="18" height="1" fill="#A2ADF6"/>
<rect x="7" y="13" width="18" height="1" fill="#98A5F5"/>
</g>
<defs>
<linearGradient id="paint0_linear_42_84" x1="31" y1="1" x2="1" y2="31" gradientUnits="userSpaceOnUse">
<stop stop-color="#BB00D8"/>
<stop offset="1" stop-color="#7D009F"/>
</linearGradient>
<linearGradient id="paint1_linear_42_84" x1="16" y1="0" x2="16" y2="17" gradientUnits="userSpaceOnUse">
<stop stop-color="white"/>
<stop offset="1" stop-color="#DDDDDD"/>
</linearGradient>
<clipPath id="clip0_42_84">
<rect width="32" height="32" fill="white"/>
</clipPath>
</defs>
</svg>
