<svg width="32" height="32" viewBox="0 0 32 32" fill="none" xmlns="http://www.w3.org/2000/svg">
<g clip-path="url(#clip0_86_222)">
<path d="M10 2H22L30 10V22L26 26L22 30H10L2 22V10L6 6L10 2Z" fill="url(#paint0_linear_86_222)"/>
<g filter="url(#filter0_d_86_222)">
<path d="M30 10V22L22 30H10L2 22V10L10 2H22L30 10ZM11.7139 6L6 11.7139V20.2861L11.7139 26H20.2861L26 20.2861V11.7139L20.2861 6H11.7139Z" fill="#D9D9D9"/>
</g>
<path d="M21.1429 4H10.8571L7.42857 7.42857L4 10.8571V21.1429L10.8571 28H21.1429L24.5714 24.5714L28 21.1429V10.8571L21.1429 4Z" stroke="url(#paint1_linear_86_222)" stroke-width="4"/>
<path d="M21.5 3H10.5L3 10.5V22L10 28.5L11.5 27L5 20.5V11L11 5H21L27 11V20.5L29 21.5V10.5L21.5 3Z" fill="url(#paint2_linear_86_222)"/>
<path d="M5.84367 26.1818L9.68258 5.85818H14.8011L18.5899 26.1818H14.4499L13.7724 21.8913H10.7866L10.084 26.1818H5.84367ZM11.188 19.2065H13.3459L12.2669 11.2778L11.188 19.2065ZM20.6669 26.1818V5.85818H25.1582V26.1818H20.6669Z" fill="url(#paint3_linear_86_222)"/>
<path d="M10.8571 4L7.42857 7.42857M28 21.1429L24.5714 24.5714M21.1429 28L24.5714 24.5714M4 10.8571L7.42857 7.42857M7.42857 7.42857L24.5714 24.5714" stroke="url(#paint4_linear_86_222)" stroke-width="4"/>
<path d="M5.00004 11L11 5L11.86 5L10.18 3.31999L3.32007 10.18L5.00004 11.85V11Z" fill="url(#paint5_linear_86_222)"/>
</g>
<defs>
<filter id="filter0_d_86_222" x="0" y="0" width="32" height="32" filterUnits="userSpaceOnUse" color-interpolation-filters="sRGB">
<feFlood flood-opacity="0" result="BackgroundImageFix"/>
<feColorMatrix in="SourceAlpha" type="matrix" values="0 0 0 0 0 0 0 0 0 0 0 0 0 0 0 0 0 0 127 0" result="hardAlpha"/>
<feOffset/>
<feGaussianBlur stdDeviation="1"/>
<feComposite in2="hardAlpha" operator="out"/>
<feColorMatrix type="matrix" values="0 0 0 0 0 0 0 0 0 0 0 0 0 0 0 0 0 0 0.25 0"/>
<feBlend mode="normal" in2="BackgroundImageFix" result="effect1_dropShadow_86_222"/>
<feBlend mode="normal" in="SourceGraphic" in2="effect1_dropShadow_86_222" result="shape"/>
</filter>
<linearGradient id="paint0_linear_86_222" x1="16" y1="2" x2="16" y2="30" gradientUnits="userSpaceOnUse">
<stop stop-color="white"/>
<stop offset="1" stop-color="#EEEEEE"/>
</linearGradient>
<linearGradient id="paint1_linear_86_222" x1="16" y1="4" x2="16" y2="28" gradientUnits="userSpaceOnUse">
<stop stop-color="#FF3333"/>
<stop offset="1" stop-color="#FF0000"/>
</linearGradient>
<linearGradient id="paint2_linear_86_222" x1="7" y1="7.5" x2="20" y2="20.5" gradientUnits="userSpaceOnUse">
<stop stop-color="white" stop-opacity="0.5"/>
<stop offset="1" stop-color="white" stop-opacity="0"/>
</linearGradient>
<linearGradient id="paint3_linear_86_222" x1="16" y1="-3.81818" x2="16" y2="33.1818" gradientUnits="userSpaceOnUse">
<stop stop-color="#555555"/>
<stop offset="1" stop-color="#111111"/>
</linearGradient>
<linearGradient id="paint4_linear_86_222" x1="16" y1="4" x2="16" y2="28" gradientUnits="userSpaceOnUse">
<stop stop-color="#FF3333"/>
<stop offset="1" stop-color="#FF0000"/>
</linearGradient>
<linearGradient id="paint5_linear_86_222" x1="7" y1="6.5" x2="21" y2="20.5" gradientUnits="userSpaceOnUse">
<stop stop-color="white" stop-opacity="0.5"/>
<stop offset="1" stop-color="white" stop-opacity="0"/>
</linearGradient>
<clipPath id="clip0_86_222">
<rect width="32" height="32" fill="white"/>
</clipPath>
</defs>
</svg>
