<svg width="32" height="32" viewBox="0 0 32 32" fill="none" xmlns="http://www.w3.org/2000/svg">
<g clip-path="url(#clip0_42_91)">
<rect x="22.5" y="4.5" width="3" height="9" fill="#888888" stroke="#444444"/>
<rect x="21.5" y="2.5" width="5" height="3" fill="#888888" stroke="#555555"/>
<path d="M26 16.2578V30.5H6V16.2578L16 9.11426L26 16.2578Z" fill="url(#paint0_linear_42_91)" stroke="#83D277"/>
<path d="M16.2979 5.59863L29.7979 15.5986L31.0146 16.5H25.833L25.7002 16.4004L16 9.125L6.2998 16.4004L6.16699 16.5H0.985352L2.20215 15.5986L15.7021 5.59863L16 5.37793L16.2979 5.59863Z" fill="url(#paint1_linear_42_91)" stroke="#CE5600"/>
<mask id="path-5-outside-1_42_91" maskUnits="userSpaceOnUse" x="12.5" y="19" width="7" height="12" fill="black">
<rect fill="white" x="12.5" y="19" width="7" height="12"/>
<path d="M16 20C17.3807 20 18.5 21.1193 18.5 22.5V30H13.5V22.5C13.5 21.1193 14.6193 20 16 20Z"/>
</mask>
<path d="M16 20C17.3807 20 18.5 21.1193 18.5 22.5V30H13.5V22.5C13.5 21.1193 14.6193 20 16 20Z" fill="url(#paint2_linear_42_91)"/>
<path d="M18.5 30V31H19.5V30H18.5ZM13.5 30H12.5V31H13.5V30ZM16 20V21C16.8284 21 17.5 21.6716 17.5 22.5H18.5H19.5C19.5 20.567 17.933 19 16 19V20ZM18.5 22.5H17.5V30H18.5H19.5V22.5H18.5ZM18.5 30V29H13.5V30V31H18.5V30ZM13.5 30H14.5V22.5H13.5H12.5V30H13.5ZM13.5 22.5H14.5C14.5 21.6716 15.1716 21 16 21V20V19C14.067 19 12.5 20.567 12.5 22.5H13.5Z" fill="#D32701" mask="url(#path-5-outside-1_42_91)"/>
</g>
<defs>
<linearGradient id="paint0_linear_42_91" x1="16" y1="8.5" x2="16" y2="31" gradientUnits="userSpaceOnUse">
<stop stop-color="#D7FAD2"/>
<stop offset="1" stop-color="#92F284"/>
</linearGradient>
<linearGradient id="paint1_linear_42_91" x1="16" y1="6" x2="16" y2="17" gradientUnits="userSpaceOnUse">
<stop stop-color="#EA6100"/>
<stop offset="1" stop-color="#D35801"/>
</linearGradient>
<linearGradient id="paint2_linear_42_91" x1="16" y1="20" x2="16" y2="30" gradientUnits="userSpaceOnUse">
<stop stop-color="#FF3B0F"/>
<stop offset="1" stop-color="#D32701"/>
</linearGradient>
<clipPath id="clip0_42_91">
<rect width="32" height="32" fill="white"/>
</clipPath>
</defs>
</svg>
