<svg width="32" height="32" viewBox="0 0 32 32" fill="none" xmlns="http://www.w3.org/2000/svg">
<path d="M1.11719 15.2412C0.652127 15.6403 0.652128 16.3597 1.11719 16.7588L13.3809 27.2705C14.1389 27.9199 15.2761 27.1798 14.9893 26.2236L12.6719 18.5L30.5 18.5C31.0523 18.5 31.5 18.0523 31.5 17.5L31.5 14.5C31.5 13.9477 31.0523 13.5 30.5 13.5L12.6719 13.5L14.9893 5.77637C15.2761 4.82019 14.1389 4.08009 13.3809 4.72949L1.11719 15.2412Z" fill="url(#paint0_linear_110_156)"/>
<path d="M1.11719 15.2412C0.652127 15.6403 0.652128 16.3597 1.11719 16.7588L13.3809 27.2705C14.1389 27.9199 15.2761 27.1798 14.9893 26.2236L12.6719 18.5L30.5 18.5C31.0523 18.5 31.5 18.0523 31.5 17.5L31.5 14.5C31.5 13.9477 31.0523 13.5 30.5 13.5L12.6719 13.5L14.9893 5.77637C15.2761 4.82019 14.1389 4.08009 13.3809 4.72949L1.11719 15.2412Z" fill="url(#paint1_linear_110_156)" fill-opacity="0.4"/>
<path d="M1.11719 15.2412C0.652127 15.6403 0.652128 16.3597 1.11719 16.7588L13.3809 27.2705C14.1389 27.9199 15.2761 27.1798 14.9893 26.2236L12.6719 18.5L30.5 18.5C31.0523 18.5 31.5 18.0523 31.5 17.5L31.5 14.5C31.5 13.9477 31.0523 13.5 30.5 13.5L12.6719 13.5L14.9893 5.77637C15.2761 4.82019 14.1389 4.08009 13.3809 4.72949L1.11719 15.2412Z" stroke="#0037CF"/>
<defs>
<linearGradient id="paint0_linear_110_156" x1="16" y1="28" x2="16" y2="4" gradientUnits="userSpaceOnUse">
<stop stop-color="#0063ED"/>
<stop offset="1" stop-color="#20BCFF"/>
</linearGradient>
<linearGradient id="paint1_linear_110_156" x1="16" y1="4" x2="16" y2="28" gradientUnits="userSpaceOnUse">
<stop stop-color="white"/>
<stop offset="0.5" stop-color="white" stop-opacity="0.5"/>
<stop offset="0.5" stop-color="white" stop-opacity="0"/>
</linearGradient>
</defs>
</svg>
