<svg width="107" height="17" viewBox="0 0 107 17" fill="none" xmlns="http://www.w3.org/2000/svg">
<path d="M17.8926 13V5.97835H18.9571V6.9635C19.1775 6.61969 19.4706 6.3442 19.8364 6.13704C20.2023 5.92546 20.6188 5.81967 21.086 5.81967C21.6062 5.81967 22.0315 5.92766 22.3621 6.14365C22.6971 6.35963 22.9329 6.66157 23.0696 7.04945C23.6249 6.2296 24.3478 5.81967 25.2382 5.81967C25.9346 5.81967 26.4702 6.01362 26.8448 6.4015C27.2195 6.78498 27.4068 7.37784 27.4068 8.18006V13H26.2233V8.57676C26.2233 8.10072 26.1837 7.75911 26.1043 7.55194C26.0294 7.34037 25.8906 7.17067 25.6878 7.04284C25.485 6.91501 25.247 6.8511 24.9737 6.8511C24.4801 6.8511 24.0701 7.01639 23.744 7.34698C23.4178 7.67316 23.2547 8.19769 23.2547 8.92057V13H22.0646V8.43791C22.0646 7.90898 21.9676 7.51227 21.7737 7.2478C21.5797 6.98334 21.2624 6.8511 20.8216 6.8511C20.4866 6.8511 20.1758 6.93926 19.8893 7.11557C19.6072 7.29188 19.4023 7.54974 19.2744 7.88914C19.1466 8.22854 19.0827 8.71781 19.0827 9.35694V13H17.8926ZM33.7541 12.1339C33.3133 12.5085 32.888 12.773 32.478 12.9273C32.0725 13.0815 31.6361 13.1587 31.1689 13.1587C30.3975 13.1587 29.8047 12.9713 29.3904 12.5967C28.976 12.2176 28.7689 11.735 28.7689 11.1487C28.7689 10.8049 28.846 10.492 29.0003 10.2099C29.159 9.92335 29.3639 9.69414 29.6152 9.52224C29.8708 9.35033 30.1573 9.2203 30.4747 9.13214C30.7083 9.07044 31.0609 9.01093 31.5326 8.95363C32.4935 8.83902 33.2009 8.70238 33.6549 8.5437C33.6593 8.38061 33.6615 8.27703 33.6615 8.23295C33.6615 7.74809 33.5491 7.40649 33.3243 7.20813C33.0202 6.93926 32.5684 6.80482 31.9689 6.80482C31.4091 6.80482 30.9948 6.904 30.7259 7.10235C30.4615 7.29629 30.2653 7.6423 30.1375 8.14039L28.9738 7.98171C29.0796 7.48362 29.2537 7.08251 29.4961 6.77837C29.7386 6.46983 30.089 6.23401 30.5474 6.07092C31.0058 5.90342 31.537 5.81967 32.1408 5.81967C32.7403 5.81967 33.2274 5.8902 33.602 6.03125C33.9767 6.1723 34.2522 6.35081 34.4285 6.5668C34.6048 6.77837 34.7282 7.04725 34.7987 7.37343C34.8384 7.57619 34.8583 7.94204 34.8583 8.47097V10.0578C34.8583 11.1641 34.8825 11.865 34.931 12.1603C34.9839 12.4512 35.0853 12.7311 35.2351 13H33.9921C33.8687 12.7532 33.7894 12.4645 33.7541 12.1339ZM33.6549 9.47595C33.223 9.65227 32.575 9.80213 31.7111 9.92555C31.2218 9.99608 30.8758 10.0754 30.673 10.1636C30.4703 10.2517 30.3138 10.3818 30.2036 10.5537C30.0934 10.7212 30.0383 10.9085 30.0383 11.1157C30.0383 11.433 30.1573 11.6975 30.3953 11.9091C30.6378 12.1206 30.9904 12.2264 31.4532 12.2264C31.9116 12.2264 32.3194 12.1273 32.6764 11.9289C33.0334 11.7261 33.2957 11.4507 33.4632 11.1024C33.591 10.8336 33.6549 10.4369 33.6549 9.91233V9.47595ZM41.2915 10.428L42.4617 10.5801C42.3339 11.3867 42.0055 12.0193 41.4766 12.4777C40.9521 12.9317 40.3063 13.1587 39.5393 13.1587C38.5784 13.1587 37.8049 12.8457 37.2186 12.2198C36.6368 11.5895 36.3459 10.6881 36.3459 9.51562C36.3459 8.75748 36.4715 8.0941 36.7228 7.5255C36.974 6.95689 37.3553 6.53154 37.8666 6.24944C38.3823 5.96293 38.9421 5.81967 39.546 5.81967C40.3085 5.81967 40.9322 6.01362 41.4171 6.4015C41.9019 6.78498 42.2127 7.33155 42.3493 8.04121L41.1923 8.21973C41.0821 7.74809 40.8859 7.39326 40.6038 7.15524C40.3261 6.91722 39.9889 6.79821 39.5922 6.79821C38.9928 6.79821 38.5057 7.01419 38.1311 7.44616C37.7564 7.87371 37.5691 8.55252 37.5691 9.48257C37.5691 10.4258 37.7498 11.1113 38.1112 11.5388C38.4727 11.9664 38.9443 12.1801 39.5261 12.1801C39.9934 12.1801 40.3834 12.0369 40.6964 11.7504C41.0094 11.4639 41.2077 11.0231 41.2915 10.428ZM43.4667 13V5.97835H44.5378V7.04284C44.8111 6.54476 45.0623 6.21638 45.2915 6.0577C45.5252 5.89901 45.7808 5.81967 46.0585 5.81967C46.4596 5.81967 46.8673 5.9475 47.2817 6.20315L46.8717 7.30731C46.5808 7.13541 46.2899 7.04945 45.999 7.04945C45.7389 7.04945 45.5053 7.12879 45.2982 7.28747C45.091 7.44175 44.9433 7.65773 44.8552 7.93542C44.7229 8.35857 44.6568 8.82139 44.6568 9.32388V13H43.4667ZM47.5461 9.48918C47.5461 8.18887 47.9076 7.22577 48.6305 6.59986C49.2343 6.07973 49.9704 5.81967 50.8388 5.81967C51.8041 5.81967 52.5931 6.13704 53.2058 6.77176C53.8185 7.40208 54.1248 8.27482 54.1248 9.39C54.1248 10.2936 53.9882 11.0055 53.7149 11.5256C53.446 12.0413 53.0515 12.4424 52.5314 12.7289C52.0157 13.0154 51.4515 13.1587 50.8388 13.1587C49.8558 13.1587 49.0602 12.8435 48.4519 12.2132C47.8481 11.5829 47.5461 10.6749 47.5461 9.48918ZM48.7693 9.48918C48.7693 10.3884 48.9655 11.0628 49.3578 11.5124C49.75 11.9576 50.2437 12.1801 50.8388 12.1801C51.4294 12.1801 51.9209 11.9553 52.3132 11.5058C52.7055 11.0562 52.9016 10.3707 52.9016 9.44951C52.9016 8.58117 52.7033 7.9244 52.3066 7.47921C51.9143 7.02962 51.425 6.80482 50.8388 6.80482C50.2437 6.80482 49.75 7.02741 49.3578 7.4726C48.9655 7.91779 48.7693 8.58998 48.7693 9.48918ZM55.5265 13V5.97835H56.591V6.9635C56.8114 6.61969 57.1045 6.3442 57.4703 6.13704C57.8362 5.92546 58.2527 5.81967 58.7199 5.81967C59.2401 5.81967 59.6654 5.92766 59.996 6.14365C60.331 6.35963 60.5668 6.66157 60.7035 7.04945C61.2588 6.2296 61.9817 5.81967 62.8721 5.81967C63.5685 5.81967 64.1041 6.01362 64.4788 6.4015C64.8534 6.78498 65.0407 7.37784 65.0407 8.18006V13H63.8573V8.57676C63.8573 8.10072 63.8176 7.75911 63.7382 7.55194C63.6633 7.34037 63.5245 7.17067 63.3217 7.04284C63.1189 6.91501 62.8809 6.8511 62.6076 6.8511C62.114 6.8511 61.704 7.01639 61.3779 7.34698C61.0517 7.67316 60.8886 8.19769 60.8886 8.92057V13H59.6985V8.43791C59.6985 7.90898 59.6015 7.51227 59.4076 7.2478C59.2136 6.98334 58.8963 6.8511 58.4555 6.8511C58.1205 6.8511 57.8097 6.93926 57.5232 7.11557C57.2411 7.29188 57.0362 7.54974 56.9083 7.88914C56.7805 8.22854 56.7166 8.71781 56.7166 9.35694V13H55.5265ZM66.3631 9.48918C66.3631 8.18887 66.7245 7.22577 67.4474 6.59986C68.0513 6.07973 68.7874 5.81967 69.6557 5.81967C70.621 5.81967 71.41 6.13704 72.0227 6.77176C72.6354 7.40208 72.9418 8.27482 72.9418 9.39C72.9418 10.2936 72.8051 11.0055 72.5318 11.5256C72.2629 12.0413 71.8684 12.4424 71.3483 12.7289C70.8326 13.0154 70.2684 13.1587 69.6557 13.1587C68.6728 13.1587 67.8772 12.8435 67.2689 12.2132C66.665 11.5829 66.3631 10.6749 66.3631 9.48918ZM67.5863 9.48918C67.5863 10.3884 67.7824 11.0628 68.1747 11.5124C68.567 11.9576 69.0607 12.1801 69.6557 12.1801C70.2464 12.1801 70.7378 11.9553 71.1301 11.5058C71.5224 11.0562 71.7186 10.3707 71.7186 9.44951C71.7186 8.58117 71.5202 7.9244 71.1235 7.47921C70.7312 7.02962 70.242 6.80482 69.6557 6.80482C69.0607 6.80482 68.567 7.02741 68.1747 7.4726C67.7824 7.91779 67.5863 8.58998 67.5863 9.48918ZM78.8989 13V12.114C78.4537 12.8105 77.7992 13.1587 76.9352 13.1587C76.3754 13.1587 75.8597 13.0044 75.3881 12.6959C74.9209 12.3873 74.5572 11.9576 74.2972 11.4066C74.0415 10.8512 73.9137 10.2143 73.9137 9.49579C73.9137 8.79495 74.0305 8.16022 74.2641 7.59161C74.4977 7.0186 74.8481 6.58002 75.3154 6.27588C75.7826 5.97174 76.3049 5.81967 76.8823 5.81967C77.3055 5.81967 77.6824 5.91003 78.0129 6.09075C78.3435 6.26707 78.6124 6.49848 78.8196 6.78498V3.30722H80.0031V13H78.8989ZM75.1368 9.49579C75.1368 10.395 75.3264 11.0672 75.7055 11.5124C76.0845 11.9576 76.5319 12.1801 77.0476 12.1801C77.5678 12.1801 78.0085 11.9686 78.37 11.5454C78.7358 11.1179 78.9187 10.4677 78.9187 9.59496C78.9187 8.63406 78.7336 7.92881 78.3634 7.47921C77.9931 7.02962 77.5369 6.80482 76.9947 6.80482C76.4658 6.80482 76.0228 7.0208 75.6658 7.45277C75.3132 7.88473 75.1368 8.56574 75.1368 9.49579ZM86.6875 10.7388L87.9173 10.8909C87.7234 11.6093 87.3641 12.1669 86.8396 12.5636C86.3151 12.9603 85.6451 13.1587 84.8296 13.1587C83.8026 13.1587 82.9872 12.8435 82.3833 12.2132C81.7838 11.5785 81.4841 10.6903 81.4841 9.54868C81.4841 8.36739 81.7882 7.45056 82.3965 6.79821C83.0048 6.14585 83.7938 5.81967 84.7635 5.81967C85.7024 5.81967 86.4693 6.13924 87.0644 6.77837C87.6594 7.41751 87.957 8.3167 87.957 9.47595C87.957 9.54648 87.9548 9.65227 87.9504 9.79332H82.7139C82.7579 10.5647 82.9761 11.1553 83.3684 11.5653C83.7607 11.9752 84.25 12.1801 84.8362 12.1801C85.2726 12.1801 85.6451 12.0655 85.9536 11.8363C86.2622 11.6071 86.5068 11.2413 86.6875 10.7388ZM82.78 8.81478H86.7007C86.6478 8.22414 86.498 7.78115 86.2511 7.48583C85.8721 7.02741 85.3806 6.79821 84.7767 6.79821C84.2302 6.79821 83.7695 6.98113 83.3949 7.34698C83.0246 7.71283 82.8197 8.2021 82.78 8.81478ZM89.3917 13V3.30722H90.5818V13H89.3917ZM92.4067 13V3.30722H93.5968V13H92.4067ZM100.255 10.7388L101.485 10.8909C101.291 11.6093 100.931 12.1669 100.407 12.5636C99.8823 12.9603 99.2123 13.1587 98.3969 13.1587C97.3698 13.1587 96.5544 12.8435 95.9505 12.2132C95.3511 11.5785 95.0513 10.6903 95.0513 9.54868C95.0513 8.36739 95.3555 7.45056 95.9638 6.79821C96.572 6.14585 97.361 5.81967 98.3307 5.81967C99.2696 5.81967 100.037 6.13924 100.632 6.77837C101.227 7.41751 101.524 8.3167 101.524 9.47595C101.524 9.54648 101.522 9.65227 101.518 9.79332H96.2811C96.3252 10.5647 96.5434 11.1553 96.9357 11.5653C97.328 11.9752 97.8172 12.1801 98.4035 12.1801C98.8399 12.1801 99.2123 12.0655 99.5209 11.8363C99.8294 11.6071 100.074 11.2413 100.255 10.7388ZM96.3472 8.81478H100.268C100.215 8.22414 100.065 7.78115 99.8184 7.48583C99.4393 7.02741 98.9478 6.79821 98.344 6.79821C97.7974 6.79821 97.3368 6.98113 96.9621 7.34698C96.5919 7.71283 96.3869 8.2021 96.3472 8.81478ZM102.972 13V5.97835H104.043V7.04284C104.317 6.54476 104.568 6.21638 104.797 6.0577C105.031 5.89901 105.286 5.81967 105.564 5.81967C105.965 5.81967 106.373 5.9475 106.787 6.20315L106.377 7.30731C106.086 7.13541 105.795 7.04945 105.504 7.04945C105.244 7.04945 105.011 7.12879 104.804 7.28747C104.596 7.44175 104.449 7.65773 104.361 7.93542C104.228 8.35857 104.162 8.82139 104.162 9.32388V13H102.972Z" fill="url(#paint0_linear_81_85)"/>
<circle cx="8" cy="9" r="7.5" fill="url(#paint1_linear_81_85)" stroke="#3B63A8"/>
<path d="M14 9C14 8.21207 13.8448 7.43185 13.5433 6.7039C13.2417 5.97595 12.7998 5.31451 12.2426 4.75736C11.6855 4.20021 11.0241 3.75825 10.2961 3.45672C9.56815 3.15519 8.78793 3 8 3L8 7.98252C8.13362 7.98252 8.26593 8.00883 8.38937 8.05997C8.51282 8.1111 8.62499 8.18605 8.71947 8.28053C8.81395 8.37501 8.8889 8.48718 8.94003 8.61063C8.99117 8.73407 9.01748 8.86638 9.01748 9H14Z" fill="url(#paint2_linear_81_85)"/>
<path d="M2 9C2 9.78793 2.15519 10.5681 2.45672 11.2961C2.75825 12.0241 3.20021 12.6855 3.75736 13.2426C4.31451 13.7998 4.97595 14.2417 5.7039 14.5433C6.43185 14.8448 7.21207 15 8 15L8 10.0175C7.86638 10.0175 7.73407 9.99117 7.61063 9.94003C7.48718 9.8889 7.37501 9.81395 7.28053 9.71947C7.18605 9.62499 7.1111 9.51282 7.05997 9.38937C7.00883 9.26593 6.98252 9.13362 6.98252 9L2 9Z" fill="url(#paint3_linear_81_85)"/>
<defs>
<linearGradient id="paint0_linear_81_85" x1="62" y1="0" x2="62" y2="16" gradientUnits="userSpaceOnUse">
<stop stop-color="#BED2D6"/>
<stop offset="1" stop-color="#899AB0"/>
</linearGradient>
<linearGradient id="paint1_linear_81_85" x1="8" y1="1" x2="8" y2="17" gradientUnits="userSpaceOnUse">
<stop stop-color="#D6FAFF"/>
<stop offset="1" stop-color="#559CFF"/>
</linearGradient>
<linearGradient id="paint2_linear_81_85" x1="8" y1="3" x2="8" y2="15" gradientUnits="userSpaceOnUse">
<stop stop-color="#9495FF"/>
<stop offset="1" stop-color="#362F75"/>
</linearGradient>
<linearGradient id="paint3_linear_81_85" x1="8" y1="3" x2="8" y2="15" gradientUnits="userSpaceOnUse">
<stop stop-color="#9495FF"/>
<stop offset="1" stop-color="#362F75"/>
</linearGradient>
</defs>
</svg>
