<svg width="32" height="32" viewBox="0 0 32 32" fill="none" xmlns="http://www.w3.org/2000/svg">
<path d="M27.5 31.5H4.5V0.5H17.1914L17.335 0.62793L27.335 9.62793L27.5 9.77734V31.5Z" fill="url(#paint0_linear_110_129)" stroke="#666666"/>
<path d="M16.8086 0.538086C16.9866 0.464343 17.1917 0.499021 17.335 0.62793L27.335 9.62793C27.4856 9.76352 27.5388 9.97709 27.4707 10.168C27.4026 10.3588 27.2259 10.4894 27.0234 10.499L16.5234 10.999C16.3824 11.0056 16.2451 10.9526 16.1455 10.8525C16.0459 10.7524 15.9936 10.6147 16.001 10.4736L16.501 0.973633L16.5098 0.902344C16.542 0.740203 16.653 0.602561 16.8086 0.538086Z" fill="url(#paint1_linear_110_129)" stroke="#666666" stroke-linejoin="round"/>
<path d="M23.8691 16.6631L24.999 17.9033L26.5986 17.3945L27.1211 17.2275L27.2383 17.7637L27.5967 19.4023L29.2363 19.7617L29.7725 19.8789L29.6055 20.4014L29.0957 22L30.3369 23.1309L30.7422 23.5L30.3369 23.8691L29.0957 24.999L29.6055 26.5986L29.7725 27.1211L29.2363 27.2383L27.5967 27.5967L27.2383 29.2363L27.1211 29.7725L26.5986 29.6055L24.999 29.0957L23.8691 30.3369L23.5 30.7422L23.1309 30.3369L22 29.0957L20.4014 29.6055L19.8789 29.7725L19.7617 29.2363L19.4023 27.5967L17.7637 27.2383L17.2275 27.1211L17.3945 26.5986L17.9033 24.999L16.6631 23.8691L16.2578 23.5L16.6631 23.1309L17.9033 22L17.3945 20.4014L17.2275 19.8789L17.7637 19.7617L19.4023 19.4023L19.7617 17.7637L19.8789 17.2275L20.4014 17.3945L22 17.9033L23.1309 16.6631L23.5 16.2578L23.8691 16.6631Z" fill="#FFCC00" stroke="#FB9E08"/>
<path d="M23.5 18L24.6388 19.2499L26.25 18.7369L26.6113 20.3887L28.2631 20.75L27.7501 22.3612L29 23.5L27.7501 24.6388L28.2631 26.25L26.6113 26.6113L26.25 28.2631L24.6388 27.7501L23.5 29L22.3612 27.7501L20.75 28.2631L20.3887 26.6113L18.7369 26.25L19.2499 24.6388L18 23.5L19.2499 22.3612L18.7369 20.75L20.3887 20.3887L20.75 18.7369L22.3612 19.2499L23.5 18Z" fill="url(#paint2_linear_110_129)" fill-opacity="0.75"/>
<defs>
<linearGradient id="paint0_linear_110_129" x1="27" y1="4.5" x2="4" y2="27.5" gradientUnits="userSpaceOnUse">
<stop stop-color="white"/>
<stop offset="1" stop-color="#CCCCCC"/>
</linearGradient>
<linearGradient id="paint1_linear_110_129" x1="27" y1="4.5" x2="4" y2="27.5" gradientUnits="userSpaceOnUse">
<stop stop-color="white"/>
<stop offset="1" stop-color="#CCCCCC"/>
</linearGradient>
<linearGradient id="paint2_linear_110_129" x1="18" y1="18" x2="29" y2="29" gradientUnits="userSpaceOnUse">
<stop stop-color="white"/>
<stop offset="1" stop-color="#FFE270" stop-opacity="0"/>
</linearGradient>
</defs>
</svg>
