<svg width="32" height="32" viewBox="0 0 32 32" fill="none" xmlns="http://www.w3.org/2000/svg">
<g clip-path="url(#clip0_110_158)">
<rect width="32" height="32" fill="black"/>
<rect width="4" height="4" fill="#FF00FF"/>
<rect x="4" y="4" width="4" height="4" fill="#FF00FF"/>
<rect y="8" width="4" height="4" fill="#FF00FF"/>
<rect x="4" y="12" width="4" height="4" fill="#FF00FF"/>
<rect y="16" width="4" height="4" fill="#FF00FF"/>
<rect x="4" y="20" width="4" height="4" fill="#FF00FF"/>
<rect y="24" width="4" height="4" fill="#FF00FF"/>
<rect x="4" y="28" width="4" height="4" fill="#FF00FF"/>
<rect x="8" width="4" height="4" fill="#FF00FF"/>
<rect x="12" y="4" width="4" height="4" fill="#FF00FF"/>
<rect x="8" y="8" width="4" height="4" fill="#FF00FF"/>
<rect x="12" y="12" width="4" height="4" fill="#FF00FF"/>
<rect x="8" y="16" width="4" height="4" fill="#FF00FF"/>
<rect x="12" y="20" width="4" height="4" fill="#FF00FF"/>
<rect x="8" y="24" width="4" height="4" fill="#FF00FF"/>
<rect x="12" y="28" width="4" height="4" fill="#FF00FF"/>
<rect x="16" width="4" height="4" fill="#FF00FF"/>
<rect x="20" y="4" width="4" height="4" fill="#FF00FF"/>
<rect x="16" y="8" width="4" height="4" fill="#FF00FF"/>
<rect x="20" y="12" width="4" height="4" fill="#FF00FF"/>
<rect x="16" y="16" width="4" height="4" fill="#FF00FF"/>
<rect x="20" y="20" width="4" height="4" fill="#FF00FF"/>
<rect x="16" y="24" width="4" height="4" fill="#FF00FF"/>
<rect x="20" y="28" width="4" height="4" fill="#FF00FF"/>
<rect x="24" width="4" height="4" fill="#FF00FF"/>
<rect x="28" y="4" width="4" height="4" fill="#FF00FF"/>
<rect x="24" y="8" width="4" height="4" fill="#FF00FF"/>
<rect x="28" y="12" width="4" height="4" fill="#FF00FF"/>
<rect x="24" y="16" width="4" height="4" fill="#FF00FF"/>
<rect x="28" y="20" width="4" height="4" fill="#FF00FF"/>
<rect x="24" y="24" width="4" height="4" fill="#FF00FF"/>
<rect x="28" y="28" width="4" height="4" fill="#FF00FF"/>
<mask id="path-35-outside-1_110_158" maskUnits="userSpaceOnUse" x="7" y="3.62393" width="19" height="27" fill="black">
<rect fill="white" x="7" y="3.62393" width="19" height="27"/>
<path d="M13.8086 21.1688V20.8113C13.8156 19.5848 13.9242 18.607 14.1345 17.8781C14.3518 17.1492 14.6672 16.5604 15.0807 16.1119C15.4942 15.6633 15.9919 15.2568 16.5736 14.8923C17.0081 14.612 17.3971 14.3211 17.7406 14.0197C18.084 13.7183 18.3573 13.3854 18.5606 13.021C18.7639 12.6495 18.8655 12.236 18.8655 11.7804C18.8655 11.2968 18.7498 10.8727 18.5186 10.5083C18.2873 10.1438 17.9754 9.86347 17.5829 9.66722C17.1974 9.47098 16.7698 9.37285 16.3002 9.37285C15.8447 9.37285 15.4136 9.47448 15.0071 9.67774C14.6006 9.87399 14.2677 10.1684 14.0083 10.5609C13.749 10.9463 13.6088 11.4264 13.5878 12.0012H9.29839C9.33344 10.5994 9.66986 9.44294 10.3077 8.53179C10.9455 7.61363 11.79 6.93026 12.8414 6.4817C13.8927 6.02612 15.0527 5.79833 16.3213 5.79833C17.716 5.79833 18.9496 6.02962 20.022 6.49221C21.0943 6.94779 21.9354 7.61012 22.5451 8.47922C23.1549 9.34832 23.4598 10.3961 23.4598 11.6227C23.4598 12.4427 23.3231 13.1717 23.0498 13.8095C22.7834 14.4403 22.4085 15.001 21.9249 15.4916C21.4412 15.9752 20.87 16.4133 20.2112 16.8058C19.6575 17.1352 19.2019 17.4786 18.8445 17.8361C18.494 18.1935 18.2312 18.607 18.056 19.0766C17.8878 19.5462 17.8001 20.1244 17.7931 20.8113V21.1688H13.8086ZM15.8902 27.8973C15.1893 27.8973 14.5901 27.652 14.0925 27.1613C13.6018 26.6637 13.36 26.068 13.367 25.3741C13.36 24.6872 13.6018 24.0985 14.0925 23.6079C14.5901 23.1172 15.1893 22.8719 15.8902 22.8719C16.5561 22.8719 17.1413 23.1172 17.646 23.6079C18.1506 24.0985 18.4064 24.6872 18.4134 25.3741C18.4064 25.8367 18.2838 26.2607 18.0455 26.6462C17.8142 27.0247 17.5093 27.3296 17.1308 27.5609C16.7523 27.7851 16.3388 27.8973 15.8902 27.8973Z"/>
</mask>
<path d="M13.8086 21.1688V20.8113C13.8156 19.5848 13.9242 18.607 14.1345 17.8781C14.3518 17.1492 14.6672 16.5604 15.0807 16.1119C15.4942 15.6633 15.9919 15.2568 16.5736 14.8923C17.0081 14.612 17.3971 14.3211 17.7406 14.0197C18.084 13.7183 18.3573 13.3854 18.5606 13.021C18.7639 12.6495 18.8655 12.236 18.8655 11.7804C18.8655 11.2968 18.7498 10.8727 18.5186 10.5083C18.2873 10.1438 17.9754 9.86347 17.5829 9.66722C17.1974 9.47098 16.7698 9.37285 16.3002 9.37285C15.8447 9.37285 15.4136 9.47448 15.0071 9.67774C14.6006 9.87399 14.2677 10.1684 14.0083 10.5609C13.749 10.9463 13.6088 11.4264 13.5878 12.0012H9.29839C9.33344 10.5994 9.66986 9.44294 10.3077 8.53179C10.9455 7.61363 11.79 6.93026 12.8414 6.4817C13.8927 6.02612 15.0527 5.79833 16.3213 5.79833C17.716 5.79833 18.9496 6.02962 20.022 6.49221C21.0943 6.94779 21.9354 7.61012 22.5451 8.47922C23.1549 9.34832 23.4598 10.3961 23.4598 11.6227C23.4598 12.4427 23.3231 13.1717 23.0498 13.8095C22.7834 14.4403 22.4085 15.001 21.9249 15.4916C21.4412 15.9752 20.87 16.4133 20.2112 16.8058C19.6575 17.1352 19.2019 17.4786 18.8445 17.8361C18.494 18.1935 18.2312 18.607 18.056 19.0766C17.8878 19.5462 17.8001 20.1244 17.7931 20.8113V21.1688H13.8086ZM15.8902 27.8973C15.1893 27.8973 14.5901 27.652 14.0925 27.1613C13.6018 26.6637 13.36 26.068 13.367 25.3741C13.36 24.6872 13.6018 24.0985 14.0925 23.6079C14.5901 23.1172 15.1893 22.8719 15.8902 22.8719C16.5561 22.8719 17.1413 23.1172 17.646 23.6079C18.1506 24.0985 18.4064 24.6872 18.4134 25.3741C18.4064 25.8367 18.2838 26.2607 18.0455 26.6462C17.8142 27.0247 17.5093 27.3296 17.1308 27.5609C16.7523 27.7851 16.3388 27.8973 15.8902 27.8973Z" fill="white"/>
<path d="M13.8086 21.1688H11.8086C11.8086 22.2733 12.704 23.1688 13.8086 23.1688V21.1688ZM13.8086 20.8113L11.8086 20.7999V20.8113H13.8086ZM14.1345 17.8781L12.2178 17.3068C12.2162 17.3125 12.2145 17.3181 12.2129 17.3238L14.1345 17.8781ZM16.5736 14.8923L17.6354 16.5872C17.6429 16.5825 17.6504 16.5777 17.6578 16.5729L16.5736 14.8923ZM17.7406 14.0197L16.4214 12.5165L16.4214 12.5165L17.7406 14.0197ZM18.5606 13.021L20.3073 13.9951C20.31 13.9904 20.3126 13.9857 20.3151 13.981L18.5606 13.021ZM18.5186 10.5083L16.8299 11.5799L16.8299 11.5799L18.5186 10.5083ZM17.5829 9.66722L16.6755 11.4496C16.6798 11.4517 16.6841 11.4539 16.6884 11.4561L17.5829 9.66722ZM15.0071 9.67774L15.8766 11.4788C15.8849 11.4748 15.8933 11.4707 15.9015 11.4666L15.0071 9.67774ZM14.0083 10.5609L15.6678 11.6772C15.6709 11.6726 15.674 11.668 15.677 11.6634L14.0083 10.5609ZM13.5878 12.0012V14.0012C14.6639 14.0012 15.5471 13.1497 15.5865 12.0743L13.5878 12.0012ZM9.29839 12.0012L7.29902 11.9512C7.28555 12.4901 7.49021 13.0117 7.86662 13.3976C8.24302 13.7835 8.75929 14.0012 9.29839 14.0012V12.0012ZM10.3077 8.53179L11.9461 9.67872L11.9502 9.67282L10.3077 8.53179ZM12.8414 6.4817L13.6263 8.32128L13.6366 8.31681L12.8414 6.4817ZM20.022 6.49221L19.2298 8.32866L19.2399 8.33298L20.022 6.49221ZM22.5451 8.47922L20.9079 9.62792L20.9079 9.62792L22.5451 8.47922ZM23.0498 13.8095L21.2115 13.0216L21.2073 13.0315L23.0498 13.8095ZM21.9249 15.4916L23.3391 16.9058C23.3425 16.9024 23.3458 16.899 23.3492 16.8956L21.9249 15.4916ZM20.2112 16.8058L21.2338 18.5246L21.2348 18.524L20.2112 16.8058ZM18.8445 17.8361L17.4303 16.4218C17.4256 16.4265 17.4209 16.4312 17.4163 16.4359L18.8445 17.8361ZM18.056 19.0766L16.1822 18.3774C16.1791 18.3857 16.1761 18.3939 16.1731 18.4022L18.056 19.0766ZM17.7931 20.8113L15.7932 20.7909C15.7932 20.7977 15.7931 20.8045 15.7931 20.8113H17.7931ZM17.7931 21.1688V23.1688C18.8977 23.1688 19.7931 22.2733 19.7931 21.1688H17.7931ZM14.0925 27.1613L12.6682 28.5655C12.6749 28.5722 12.6816 28.5789 12.6883 28.5856L14.0925 27.1613ZM13.367 25.3741L15.3669 25.3943C15.3671 25.3808 15.3671 25.3672 15.3669 25.3537L13.367 25.3741ZM14.0925 23.6079L12.6883 22.1836C12.6849 22.187 12.6816 22.1903 12.6782 22.1936L14.0925 23.6079ZM17.646 23.6079L16.2518 25.0418L16.2518 25.0418L17.646 23.6079ZM18.4134 25.3741L20.4132 25.4044C20.4134 25.3875 20.4135 25.3706 20.4133 25.3537L18.4134 25.3741ZM18.0455 26.6462L16.3442 25.5945L16.3389 25.6033L18.0455 26.6462ZM17.1308 27.5609L18.1504 29.2814C18.1582 29.2768 18.166 29.2721 18.1737 29.2674L17.1308 27.5609ZM13.8086 21.1688H15.8086V20.8113H13.8086H11.8086V21.1688H13.8086ZM13.8086 20.8113L15.8086 20.8227C15.8151 19.6818 15.9183 18.9104 16.0562 18.4324L14.1345 17.8781L12.2129 17.3238C11.9302 18.3036 11.8161 19.4878 11.8086 20.7999L13.8086 20.8113ZM14.1345 17.8781L16.0512 18.4494C16.2024 17.9422 16.3888 17.6437 16.5512 17.4675L15.0807 16.1119L13.6102 14.7563C12.9456 15.4772 12.5012 16.3562 12.2178 17.3068L14.1345 17.8781ZM15.0807 16.1119L16.5512 17.4675C16.8302 17.1648 17.1859 16.8688 17.6354 16.5872L16.5736 14.8923L15.5118 13.1975C14.7979 13.6448 14.1582 14.1618 13.6102 14.7563L15.0807 16.1119ZM16.5736 14.8923L17.6578 16.5729C18.1644 16.2461 18.6336 15.897 19.0597 15.523L17.7406 14.0197L16.4214 12.5165C16.1607 12.7453 15.8519 12.9778 15.4893 13.2117L16.5736 14.8923ZM17.7406 14.0197L19.0597 15.523C19.5586 15.0852 19.9827 14.5771 20.3073 13.9951L18.5606 13.021L16.8139 12.0468C16.732 12.1937 16.6094 12.3515 16.4214 12.5165L17.7406 14.0197ZM18.5606 13.021L20.3151 13.981C20.6916 13.293 20.8655 12.5453 20.8655 11.7804H18.8655H16.8655C16.8655 11.9266 16.8362 12.006 16.8061 12.0609L18.5606 13.021ZM18.8655 11.7804H20.8655C20.8655 10.9644 20.6657 10.1591 20.2072 9.43664L18.5186 10.5083L16.8299 11.5799C16.834 11.5864 16.8655 11.6292 16.8655 11.7804H18.8655ZM18.5186 10.5083L20.2072 9.43664C19.7779 8.76009 19.1891 8.23427 18.4773 7.87837L17.5829 9.66722L16.6884 11.4561C16.7616 11.4927 16.7967 11.5276 16.8299 11.5799L18.5186 10.5083ZM17.5829 9.66722L18.4902 7.8849C17.8001 7.53357 17.0577 7.37285 16.3002 7.37285V9.37285V11.3729C16.482 11.3729 16.5946 11.4084 16.6755 11.4496L17.5829 9.66722ZM16.3002 9.37285V7.37285C15.5349 7.37285 14.7976 7.54643 14.1127 7.88888L15.0071 9.67774L15.9015 11.4666C16.0297 11.4025 16.1544 11.3729 16.3002 11.3729V9.37285ZM15.0071 9.67774L14.1376 7.87663C13.3926 8.23627 12.7889 8.77849 12.3397 9.45834L14.0083 10.5609L15.677 11.6634C15.7465 11.5582 15.8085 11.5117 15.8766 11.4788L15.0071 9.67774ZM14.0083 10.5609L12.3489 9.4445C11.8371 10.2053 11.6206 11.0692 11.5892 11.9281L13.5878 12.0012L15.5865 12.0743C15.5971 11.7837 15.661 11.6874 15.6678 11.6772L14.0083 10.5609ZM13.5878 12.0012V10.0012H9.29839V12.0012V14.0012H13.5878V12.0012ZM9.29839 12.0012L11.2978 12.0512C11.3255 10.9402 11.5862 10.1929 11.9461 9.67871L10.3077 8.53179L8.66921 7.38486C7.75354 8.69296 7.34133 10.2586 7.29902 11.9512L9.29839 12.0012ZM10.3077 8.53179L11.9502 9.67282C12.3685 9.07074 12.9126 8.62574 13.6263 8.32125L12.8414 6.4817L12.0565 4.64214C10.6675 5.23479 9.52247 6.15652 8.66509 7.39076L10.3077 8.53179ZM12.8414 6.4817L13.6366 8.31681C14.4112 7.98113 15.2968 7.79833 16.3213 7.79833V5.79833V3.79833C14.8086 3.79833 13.3742 4.07111 12.0462 4.64658L12.8414 6.4817ZM16.3213 5.79833V7.79833C17.4956 7.79833 18.4513 7.9928 19.2298 8.32863L20.022 6.49221L20.8141 4.65579C19.4479 4.06645 17.9365 3.79833 16.3213 3.79833V5.79833ZM20.022 6.49221L19.2399 8.33298C20.0028 8.65709 20.5336 9.09439 20.9079 9.62792L22.5451 8.47922L24.1824 7.33053C23.3372 6.12586 22.1858 5.23848 20.804 4.65144L20.022 6.49221ZM22.5451 8.47922L20.9079 9.62792C21.2464 10.1103 21.4598 10.7413 21.4598 11.6227H23.4598H25.4598C25.4598 10.051 25.0635 8.58635 24.1824 7.33053L22.5451 8.47922ZM23.4598 11.6227H21.4598C21.4598 12.2204 21.3606 12.6738 21.2115 13.0216L23.0498 13.8095L24.8881 14.5973C25.2857 13.6695 25.4598 12.6651 25.4598 11.6227H23.4598ZM23.0498 13.8095L21.2073 13.0315C21.0401 13.4276 20.8075 13.7762 20.5005 14.0876L21.9249 15.4916L23.3492 16.8956C24.0095 16.2258 24.5268 15.4529 24.8923 14.5874L23.0498 13.8095ZM21.9249 15.4916L20.5106 14.0774C20.1573 14.4307 19.7211 14.7697 19.1876 15.0875L20.2112 16.8058L21.2348 18.524C22.019 18.0568 22.7252 17.5197 23.3391 16.9058L21.9249 15.4916ZM20.2112 16.8058L19.1886 15.0869C18.5292 15.4793 17.932 15.9201 17.4303 16.4218L18.8445 17.8361L20.2587 19.2503C20.4718 19.0371 20.7858 18.7911 21.2338 18.5246L20.2112 16.8058ZM18.8445 17.8361L17.4163 16.4359C16.8696 16.9935 16.4551 17.6459 16.1822 18.3774L18.056 19.0766L19.9298 19.7758C20.0073 19.5681 20.1184 19.3935 20.2726 19.2362L18.8445 17.8361ZM18.056 19.0766L16.1731 18.4022C15.9073 19.1443 15.8017 19.959 15.7932 20.7909L17.7931 20.8113L19.793 20.8317C19.7986 20.2899 19.8682 19.9481 19.9388 19.7511L18.056 19.0766ZM17.7931 20.8113H15.7931V21.1688H17.7931H19.7931V20.8113H17.7931ZM17.7931 21.1688V19.1688H13.8086V21.1688V23.1688H17.7931V21.1688ZM15.8902 27.8973V25.8973C15.7131 25.8973 15.6188 25.8576 15.4966 25.7371L14.0925 27.1613L12.6883 28.5856C13.5614 29.4464 14.6656 29.8973 15.8902 29.8973V27.8973ZM14.0925 27.1613L15.5167 25.7572C15.3969 25.6358 15.3653 25.5515 15.3669 25.3943L13.367 25.3741L11.3671 25.3539C11.3547 26.5845 11.8067 27.6917 12.6682 28.5655L14.0925 27.1613ZM13.367 25.3741L15.3669 25.3537C15.3655 25.2104 15.3918 25.1369 15.5067 25.0221L14.0925 23.6079L12.6782 22.1936C11.8119 23.06 11.3546 24.1641 11.3671 25.3945L13.367 25.3741ZM14.0925 23.6079L15.4966 25.0321C15.6188 24.9116 15.7131 24.8719 15.8902 24.8719V22.8719V20.8719C14.6656 20.8719 13.5614 21.3228 12.6883 22.1836L14.0925 23.6079ZM15.8902 22.8719V24.8719C16.0034 24.8719 16.0969 24.8913 16.2518 25.0418L17.646 23.6079L19.0401 22.1739C18.1857 21.3432 17.1087 20.8719 15.8902 20.8719V22.8719ZM17.646 23.6079L16.2518 25.0418C16.3847 25.1711 16.4121 25.2553 16.4135 25.3945L18.4134 25.3741L20.4133 25.3537C20.4007 24.1192 19.9164 23.0258 19.0401 22.1739L17.646 23.6079ZM18.4134 25.3741L16.4136 25.3438C16.412 25.4531 16.3885 25.523 16.3443 25.5946L18.0455 26.6462L19.7466 27.6978C20.179 26.9985 20.4008 26.2202 20.4132 25.4044L18.4134 25.3741ZM18.0455 26.6462L16.3389 25.6033C16.273 25.711 16.1956 25.7884 16.0879 25.8543L17.1308 27.5609L18.1737 29.2674C18.8229 28.8707 19.3553 28.3383 19.752 27.6891L18.0455 26.6462ZM17.1308 27.5609L16.1112 25.8403C16.0477 25.8779 15.9874 25.8973 15.8902 25.8973V27.8973V29.8973C16.6902 29.8973 17.457 29.6924 18.1504 29.2814L17.1308 27.5609Z" fill="black" mask="url(#path-35-outside-1_110_158)"/>
</g>
<rect x="0.5" y="0.5" width="31" height="31" stroke="#800080"/>
<defs>
<clipPath id="clip0_110_158">
<rect width="32" height="32" fill="white"/>
</clipPath>
</defs>
</svg>
