<svg width="32" height="32" viewBox="0 0 32 32" fill="none" xmlns="http://www.w3.org/2000/svg">
<path d="M30.8828 15.2412C31.3479 15.6403 31.3479 16.3597 30.8828 16.7588L18.6191 27.2705C17.8611 27.9199 16.7239 27.1798 17.0107 26.2236L19.3281 18.5L1.5 18.5C0.947715 18.5 0.5 18.0523 0.5 17.5L0.5 14.5C0.5 13.9477 0.947715 13.5 1.5 13.5L19.3281 13.5L17.0107 5.77637C16.7239 4.82019 17.8611 4.08009 18.6191 4.72949L30.8828 15.2412Z" fill="url(#paint0_linear_110_155)"/>
<path d="M30.8828 15.2412C31.3479 15.6403 31.3479 16.3597 30.8828 16.7588L18.6191 27.2705C17.8611 27.9199 16.7239 27.1798 17.0107 26.2236L19.3281 18.5L1.5 18.5C0.947715 18.5 0.5 18.0523 0.5 17.5L0.5 14.5C0.5 13.9477 0.947715 13.5 1.5 13.5L19.3281 13.5L17.0107 5.77637C16.7239 4.82019 17.8611 4.08009 18.6191 4.72949L30.8828 15.2412Z" fill="url(#paint1_linear_110_155)" fill-opacity="0.4"/>
<path d="M30.8828 15.2412C31.3479 15.6403 31.3479 16.3597 30.8828 16.7588L18.6191 27.2705C17.8611 27.9199 16.7239 27.1798 17.0107 26.2236L19.3281 18.5L1.5 18.5C0.947715 18.5 0.5 18.0523 0.5 17.5L0.5 14.5C0.5 13.9477 0.947715 13.5 1.5 13.5L19.3281 13.5L17.0107 5.77637C16.7239 4.82019 17.8611 4.08009 18.6191 4.72949L30.8828 15.2412Z" stroke="#0037CF"/>
<defs>
<linearGradient id="paint0_linear_110_155" x1="16" y1="28" x2="16" y2="4" gradientUnits="userSpaceOnUse">
<stop stop-color="#0063ED"/>
<stop offset="1" stop-color="#20BCFF"/>
</linearGradient>
<linearGradient id="paint1_linear_110_155" x1="16" y1="4" x2="16" y2="28" gradientUnits="userSpaceOnUse">
<stop stop-color="white"/>
<stop offset="0.5" stop-color="white" stop-opacity="0.5"/>
<stop offset="0.5" stop-color="white" stop-opacity="0"/>
</linearGradient>
</defs>
</svg>
