<svg width="32" height="32" viewBox="0 0 32 32" fill="none" xmlns="http://www.w3.org/2000/svg">
<g clip-path="url(#clip0_85_192)">
<path d="M31 22.4141L22.4141 31H9.58594L1 22.4141V9.58594L9.58594 1H22.4141L31 9.58594V22.4141Z" fill="url(#paint0_linear_85_192)" stroke="url(#paint1_linear_85_192)" stroke-width="2"/>
<path d="M18 7C18 8.10457 16 21 16 21C16 21 14 8.10457 14 7C14 5.89543 14.8954 5 16 5C17.1046 5 18 5.89543 18 7Z" fill="url(#paint2_linear_85_192)"/>
<circle cx="16" cy="25" r="2" fill="#CCCCCC"/>
<path d="M21.1429 4H10.8571L4 10.8571V21.1429L10.8571 28H21.1429L28 21.1429V10.8571L21.1429 4Z" fill="url(#paint3_linear_85_192)"/>
</g>
<defs>
<linearGradient id="paint0_linear_85_192" x1="16" y1="2" x2="16" y2="30" gradientUnits="userSpaceOnUse">
<stop stop-color="#FF6666"/>
<stop offset="1" stop-color="#FF0000"/>
</linearGradient>
<linearGradient id="paint1_linear_85_192" x1="16" y1="2" x2="16" y2="30" gradientUnits="userSpaceOnUse">
<stop stop-color="white"/>
<stop offset="1" stop-color="#EEEEEE"/>
</linearGradient>
<linearGradient id="paint2_linear_85_192" x1="16" y1="5" x2="16" y2="21" gradientUnits="userSpaceOnUse">
<stop stop-color="white"/>
<stop offset="1" stop-color="#DDDDDD"/>
</linearGradient>
<linearGradient id="paint3_linear_85_192" x1="7.5" y1="7.5" x2="24" y2="24" gradientUnits="userSpaceOnUse">
<stop stop-color="white" stop-opacity="0.5"/>
<stop offset="1" stop-color="white" stop-opacity="0"/>
</linearGradient>
<clipPath id="clip0_85_192">
<rect width="32" height="32" fill="white"/>
</clipPath>
</defs>
</svg>
