<svg width="32" height="32" viewBox="0 0 32 32" fill="none" xmlns="http://www.w3.org/2000/svg">
<path d="M15.2412 1.11719C15.6403 0.652127 16.3597 0.652127 16.7588 1.11719L27.2705 13.3809C27.9199 14.1389 27.1798 15.2761 26.2236 14.9893L18.5 12.6719V30.5C18.5 31.0523 18.0523 31.5 17.5 31.5H14.5C13.9477 31.5 13.5 31.0523 13.5 30.5V12.6719L5.77637 14.9893C4.82019 15.2761 4.08009 14.1389 4.72949 13.3809L15.2412 1.11719Z" fill="url(#paint0_linear_110_131)"/>
<path d="M15.2412 1.11719C15.6403 0.652127 16.3597 0.652127 16.7588 1.11719L27.2705 13.3809C27.9199 14.1389 27.1798 15.2761 26.2236 14.9893L18.5 12.6719V30.5C18.5 31.0523 18.0523 31.5 17.5 31.5H14.5C13.9477 31.5 13.5 31.0523 13.5 30.5V12.6719L5.77637 14.9893C4.82019 15.2761 4.08009 14.1389 4.72949 13.3809L15.2412 1.11719Z" fill="url(#paint1_linear_110_131)" fill-opacity="0.4"/>
<path d="M15.2412 1.11719C15.6403 0.652127 16.3597 0.652127 16.7588 1.11719L27.2705 13.3809C27.9199 14.1389 27.1798 15.2761 26.2236 14.9893L18.5 12.6719V30.5C18.5 31.0523 18.0523 31.5 17.5 31.5H14.5C13.9477 31.5 13.5 31.0523 13.5 30.5V12.6719L5.77637 14.9893C4.82019 15.2761 4.08009 14.1389 4.72949 13.3809L15.2412 1.11719Z" stroke="#0037CF"/>
<defs>
<linearGradient id="paint0_linear_110_131" x1="16" y1="1" x2="16" y2="31" gradientUnits="userSpaceOnUse">
<stop stop-color="#20BCFF"/>
<stop offset="1" stop-color="#0063ED"/>
</linearGradient>
<linearGradient id="paint1_linear_110_131" x1="16" y1="1" x2="16" y2="31" gradientUnits="userSpaceOnUse">
<stop stop-color="white"/>
<stop offset="0.5" stop-color="white" stop-opacity="0.5"/>
<stop offset="0.5" stop-color="white" stop-opacity="0"/>
</linearGradient>
</defs>
</svg>
