<svg width="32" height="32" viewBox="0 0 32 32" fill="none" xmlns="http://www.w3.org/2000/svg">
<rect x="0.5" y="6.5" width="31" height="21" rx="1.5" fill="url(#paint0_linear_42_88)" stroke="#3D496C"/>
<rect x="1" y="9" width="6" height="18" rx="1" fill="#DDDDDD"/>
<rect x="8" y="11" width="19" height="2" fill="#BBBBBB"/>
<rect x="28" y="9" width="3" height="18" fill="#DDDDDD"/>
<rect x="28" y="24" width="3" height="3" fill="#BBBBBB"/>
<rect x="28" y="9" width="3" height="4" fill="#BBBBBB"/>
<rect x="19" y="14" width="8" height="2" fill="#BBBBBB"/>
<rect x="19" y="17" width="8" height="2" fill="#BBBBBB"/>
<rect x="19" y="20" width="8" height="2" fill="#BBBBBB"/>
<rect x="8" y="23" width="19" height="3" fill="#BBBBBB"/>
<rect x="8" y="14" width="10" height="8" rx="0.5" fill="url(#paint1_linear_42_88)"/>
<rect x="0.5" y="4.5" width="31" height="5" rx="1.5" fill="url(#paint2_linear_42_88)" stroke="#3D496C"/>
<rect x="26.5" y="4.5" width="5" height="5" rx="1.5" fill="url(#paint3_linear_42_88)" stroke="#3D496C"/>
<defs>
<linearGradient id="paint0_linear_42_88" x1="16" y1="10" x2="16" y2="27" gradientUnits="userSpaceOnUse">
<stop stop-color="white"/>
<stop offset="1" stop-color="#DDDDDD"/>
</linearGradient>
<linearGradient id="paint1_linear_42_88" x1="13" y1="14" x2="13" y2="22" gradientUnits="userSpaceOnUse">
<stop stop-color="#20BCFF"/>
<stop offset="1" stop-color="#0063ED"/>
</linearGradient>
<linearGradient id="paint2_linear_42_88" x1="16" y1="5" x2="16" y2="9" gradientUnits="userSpaceOnUse">
<stop stop-color="#20BCFF"/>
<stop offset="1" stop-color="#00B2ED"/>
</linearGradient>
<linearGradient id="paint3_linear_42_88" x1="29" y1="5" x2="29" y2="9" gradientUnits="userSpaceOnUse">
<stop stop-color="#0063ED"/>
<stop offset="1" stop-color="#0037CF"/>
</linearGradient>
</defs>
</svg>
