<svg width="32" height="32" viewBox="0 0 32 32" fill="none" xmlns="http://www.w3.org/2000/svg">
<path d="M14.5603 1.41832C14.3088 0.741699 14.8099 0 15.5318 0H31C31.5523 0 32 0.447715 32 1V31C32 31.5523 31.5524 32 31.0002 32C28.7138 32 23.1102 32 20.624 32C20.0718 32 19.6255 31.5476 19.6199 30.9954C19.4672 16.0621 15.9524 5.16294 14.5603 1.41832Z" fill="url(#paint0_linear_153_141)"/>
<path d="M23.6875 11.7578V20.0938H28.3906C28.7656 20.0938 29.0521 20.1849 29.25 20.3672C29.4531 20.5495 29.5547 20.7786 29.5547 21.0547C29.5547 21.3359 29.4557 21.5651 29.2578 21.7422C29.0599 21.9141 28.7708 22 28.3906 22H22.7891C22.2839 22 21.9193 21.888 21.6953 21.6641C21.4766 21.4401 21.3672 21.0781 21.3672 20.5781V11.7578C21.3672 11.2891 21.4714 10.9375 21.6797 10.7031C21.8932 10.4688 22.1719 10.3516 22.5156 10.3516C22.8646 10.3516 23.1458 10.4688 23.3594 10.7031C23.5781 10.9323 23.6875 11.2839 23.6875 11.7578Z" fill="url(#paint1_linear_153_141)"/>
<path d="M10.7071 12.7071L15.3169 17.3169C15.6979 17.6979 15.7085 18.3123 15.3408 18.7063L10.7311 23.6453C10.1118 24.3088 9 23.8706 9 22.963V21C9 20.4477 8.55228 20 8 20H3C2.44772 20 2 19.5523 2 19V17C2 16.4477 2.44772 16 3 16H8C8.55228 16 9 15.5523 9 15V13.4142C9 12.5233 10.0771 12.0771 10.7071 12.7071Z" fill="url(#paint2_linear_153_141)"/>
<defs>
<linearGradient id="paint0_linear_153_141" x1="23" y1="0" x2="23" y2="32" gradientUnits="userSpaceOnUse">
<stop stop-color="white"/>
<stop offset="1" stop-color="#BBBBBB"/>
</linearGradient>
<linearGradient id="paint1_linear_153_141" x1="25" y1="11" x2="25" y2="20" gradientUnits="userSpaceOnUse">
<stop stop-color="#737373"/>
<stop offset="1" stop-color="#989898"/>
</linearGradient>
<linearGradient id="paint2_linear_153_141" x1="15" y1="18" x2="2" y2="18" gradientUnits="userSpaceOnUse">
<stop stop-color="#20BCFF"/>
<stop offset="1" stop-color="#0063ED"/>
</linearGradient>
</defs>
</svg>
