<svg width="32" height="32" viewBox="0 0 32 32" fill="none" xmlns="http://www.w3.org/2000/svg">
<circle cx="16" cy="21" r="8.5" fill="url(#paint0_radial_153_132)" stroke="#424242"/>
<ellipse cx="16" cy="20.5" rx="7" ry="6.5" fill="#686868"/>
<circle cx="16" cy="14" r="11.5" fill="url(#paint1_radial_153_132)"/>
<circle cx="16" cy="14" r="11.5" fill="url(#paint2_linear_153_132)" fill-opacity="0.35"/>
<circle cx="16" cy="14" r="11.5" stroke="#767676"/>
<path d="M10 1L16 9L22 1L16 3L10 1Z" fill="url(#paint3_linear_153_132)"/>
<path d="M11.7959 14.9385H11.2881V17.2383C11.2881 17.541 11.2214 17.764 11.0879 17.9072C10.9544 18.0505 10.7803 18.1221 10.5654 18.1221C10.3343 18.1221 10.1553 18.0472 10.0283 17.8975C9.90137 17.7477 9.83789 17.528 9.83789 17.2383V11.7305C9.83789 11.418 9.90788 11.1917 10.0479 11.0518C10.1878 10.9118 10.4141 10.8418 10.7266 10.8418H13.085C13.4105 10.8418 13.6888 10.8564 13.9199 10.8857C14.151 10.9118 14.3594 10.9671 14.5449 11.0518C14.7695 11.1462 14.9681 11.2812 15.1406 11.457C15.3132 11.6328 15.4434 11.8379 15.5312 12.0723C15.6224 12.3034 15.668 12.5492 15.668 12.8096C15.668 13.3434 15.5166 13.7699 15.2139 14.0889C14.9144 14.4079 14.4587 14.6341 13.8467 14.7676C14.1038 14.9043 14.3496 15.1061 14.584 15.373C14.8184 15.64 15.0267 15.9248 15.209 16.2275C15.3945 16.527 15.5378 16.7988 15.6387 17.043C15.7428 17.2839 15.7949 17.4499 15.7949 17.541C15.7949 17.6354 15.764 17.7298 15.7021 17.8242C15.6436 17.9154 15.5622 17.987 15.458 18.0391C15.3538 18.0944 15.2334 18.1221 15.0967 18.1221C14.9339 18.1221 14.7972 18.083 14.6865 18.0049C14.5758 17.93 14.4798 17.834 14.3984 17.7168C14.3203 17.5996 14.2129 17.4271 14.0762 17.1992L13.4951 16.2324C13.2868 15.8776 13.0996 15.6074 12.9336 15.4219C12.7708 15.2363 12.6048 15.1094 12.4355 15.041C12.2663 14.9727 12.0531 14.9385 11.7959 14.9385ZM12.626 11.9307H11.2881V13.8984H12.5869C12.9352 13.8984 13.2282 13.8691 13.4658 13.8105C13.7035 13.7487 13.8841 13.6462 14.0078 13.5029C14.1348 13.3564 14.1982 13.1562 14.1982 12.9023C14.1982 12.7038 14.1478 12.5296 14.0469 12.3799C13.946 12.2269 13.806 12.113 13.627 12.0381C13.4577 11.9665 13.124 11.9307 12.626 11.9307ZM22.4844 15.8516C22.4844 16.2845 22.3721 16.6735 22.1475 17.0186C21.9261 17.3636 21.6006 17.6338 21.1709 17.8291C20.7412 18.0244 20.2318 18.1221 19.6426 18.1221C18.9362 18.1221 18.3535 17.9886 17.8945 17.7217C17.569 17.5296 17.3037 17.2741 17.0986 16.9551C16.8968 16.6328 16.7959 16.3203 16.7959 16.0176C16.7959 15.8418 16.8561 15.6921 16.9766 15.5684C17.1003 15.4414 17.2565 15.3779 17.4453 15.3779C17.5983 15.3779 17.7269 15.4268 17.8311 15.5244C17.9385 15.6221 18.0296 15.7669 18.1045 15.959C18.1956 16.1868 18.2933 16.3773 18.3975 16.5303C18.5049 16.6833 18.6546 16.8102 18.8467 16.9111C19.0387 17.0088 19.291 17.0576 19.6035 17.0576C20.0332 17.0576 20.3815 16.9583 20.6484 16.7598C20.9186 16.5579 21.0537 16.3073 21.0537 16.0078C21.0537 15.7702 20.9805 15.5781 20.834 15.4316C20.6908 15.2819 20.5036 15.168 20.2725 15.0898C20.0446 15.0117 19.7386 14.9287 19.3545 14.8408C18.8402 14.7204 18.4089 14.5804 18.0605 14.4209C17.7155 14.2581 17.4404 14.0384 17.2354 13.7617C17.0335 13.4818 16.9326 13.1351 16.9326 12.7217C16.9326 12.3278 17.04 11.9779 17.2549 11.6719C17.4697 11.3659 17.7806 11.1315 18.1875 10.9688C18.5944 10.8027 19.0729 10.7197 19.623 10.7197C20.0625 10.7197 20.4417 10.7751 20.7607 10.8857C21.083 10.9932 21.3499 11.138 21.5615 11.3203C21.7731 11.4993 21.9277 11.6882 22.0254 11.8867C22.123 12.0853 22.1719 12.279 22.1719 12.4678C22.1719 12.6403 22.11 12.7965 21.9863 12.9365C21.8659 13.0732 21.7145 13.1416 21.5322 13.1416C21.3662 13.1416 21.2393 13.1009 21.1514 13.0195C21.0667 12.9349 20.974 12.7982 20.873 12.6094C20.7428 12.3392 20.5866 12.1292 20.4043 11.9795C20.222 11.8265 19.929 11.75 19.5254 11.75C19.151 11.75 18.8483 11.833 18.6172 11.999C18.3893 12.1618 18.2754 12.3587 18.2754 12.5898C18.2754 12.7331 18.3145 12.8568 18.3926 12.9609C18.4707 13.0651 18.5781 13.1546 18.7148 13.2295C18.8516 13.3044 18.9899 13.363 19.1299 13.4053C19.2699 13.4476 19.501 13.5094 19.8232 13.5908C20.2269 13.6852 20.5915 13.7894 20.917 13.9033C21.2458 14.0173 21.5241 14.1556 21.752 14.3184C21.9831 14.4811 22.1621 14.6878 22.2891 14.9385C22.4193 15.1859 22.4844 15.4902 22.4844 15.8516Z" fill="url(#paint4_linear_153_132)"/>
<defs>
<radialGradient id="paint0_radial_153_132" cx="0" cy="0" r="1" gradientUnits="userSpaceOnUse" gradientTransform="translate(16 21) rotate(90) scale(9)">
<stop stop-color="#676767"/>
<stop offset="1" stop-color="#4D4D4D"/>
</radialGradient>
<radialGradient id="paint1_radial_153_132" cx="0" cy="0" r="1" gradientUnits="userSpaceOnUse" gradientTransform="translate(16 14) rotate(90) scale(12)">
<stop stop-color="#ADADAD"/>
<stop offset="1" stop-color="#606060"/>
</radialGradient>
<linearGradient id="paint2_linear_153_132" x1="16" y1="2" x2="16" y2="26" gradientUnits="userSpaceOnUse">
<stop stop-color="white"/>
<stop offset="0.5" stop-color="white" stop-opacity="0.5"/>
<stop offset="0.5" stop-color="white" stop-opacity="0"/>
<stop offset="1" stop-color="white" stop-opacity="0"/>
</linearGradient>
<linearGradient id="paint3_linear_153_132" x1="16" y1="1" x2="16" y2="9" gradientUnits="userSpaceOnUse">
<stop stop-color="#20BCFF"/>
<stop offset="1" stop-color="#0063ED"/>
</linearGradient>
<linearGradient id="paint4_linear_153_132" x1="16" y1="11.1304" x2="16" y2="16.8696" gradientUnits="userSpaceOnUse">
<stop stop-color="white"/>
<stop offset="1" stop-color="#DADADA"/>
</linearGradient>
</defs>
</svg>
