<svg width="32" height="32" viewBox="0 0 32 32" fill="none" xmlns="http://www.w3.org/2000/svg">
<g clip-path="url(#clip0_153_158)">
<path d="M21.2929 8.70711L16.6831 13.3169C16.3021 13.6979 15.6877 13.7085 15.2937 13.3408L10.3547 8.73105C9.69118 8.11177 10.1294 7 11.037 7H13C13.5523 7 14 6.55228 14 6V1C14 0.447715 14.4477 0 15 0H17C17.5523 0 18 0.447715 18 1V6C18 6.55228 18.4477 7 19 7H20.5858C21.4767 7 21.9229 8.07714 21.2929 8.70711Z" fill="url(#paint0_linear_153_158)"/>
<path d="M32 30C32 31.1046 31.1046 32 30 32H2C0.895431 32 0 31.1046 0 30V26C0 24.6868 0.258195 23.3861 0.760742 22.1729C1.26329 20.9596 2.00015 19.8573 2.92871 18.9287C3.85727 18.0002 4.95964 17.2633 6.17285 16.7607C7.38611 16.2582 8.68678 16 10 16H30C31.1046 16 32 16.8954 32 18V30Z" fill="url(#paint1_linear_153_158)"/>
<path d="M14.6875 19.7578V28.0938H19.3906C19.7656 28.0938 20.0521 28.1849 20.25 28.3672C20.4531 28.5495 20.5547 28.7786 20.5547 29.0547C20.5547 29.3359 20.4557 29.5651 20.2578 29.7422C20.0599 29.9141 19.7708 30 19.3906 30H13.7891C13.2839 30 12.9193 29.888 12.6953 29.6641C12.4766 29.4401 12.3672 29.0781 12.3672 28.5781V19.7578C12.3672 19.2891 12.4714 18.9375 12.6797 18.7031C12.8932 18.4688 13.1719 18.3516 13.5156 18.3516C13.8646 18.3516 14.1458 18.4688 14.3594 18.7031C14.5781 18.9323 14.6875 19.2839 14.6875 19.7578Z" fill="url(#paint2_linear_153_158)"/>
</g>
<defs>
<linearGradient id="paint0_linear_153_158" x1="16" y1="13" x2="16" y2="0" gradientUnits="userSpaceOnUse">
<stop stop-color="#20BCFF"/>
<stop offset="1" stop-color="#0063ED"/>
</linearGradient>
<linearGradient id="paint1_linear_153_158" x1="16" y1="16" x2="16" y2="32" gradientUnits="userSpaceOnUse">
<stop stop-color="white"/>
<stop offset="1" stop-color="#BBBBBB"/>
</linearGradient>
<linearGradient id="paint2_linear_153_158" x1="16" y1="21.3333" x2="16" y2="26.1333" gradientUnits="userSpaceOnUse">
<stop stop-color="#737373"/>
<stop offset="1" stop-color="#989898"/>
</linearGradient>
<clipPath id="clip0_153_158">
<rect width="32" height="32" fill="white"/>
</clipPath>
</defs>
</svg>
