<svg width="32" height="32" viewBox="0 0 32 32" fill="none" xmlns="http://www.w3.org/2000/svg">
<g clip-path="url(#clip0_150_90)">
<circle cx="16" cy="16" r="15" fill="url(#paint0_linear_150_90)" stroke="url(#paint1_linear_150_90)" stroke-width="2"/>
<path d="M10.2383 7.68359H15.9609C17.0938 7.68359 17.9368 7.73242 18.4902 7.83008C19.0501 7.92122 19.5482 8.11654 19.9844 8.41602C20.4271 8.71549 20.7949 9.11589 21.0879 9.61719C21.3809 10.112 21.5273 10.6686 21.5273 11.2871C21.5273 11.9577 21.3451 12.5729 20.9805 13.1328C20.6224 13.6927 20.1341 14.1126 19.5156 14.3926C20.388 14.6465 21.0586 15.0794 21.5273 15.6914C21.9961 16.3034 22.2305 17.0228 22.2305 17.8496C22.2305 18.5007 22.0775 19.1354 21.7715 19.7539C21.472 20.3659 21.0586 20.8574 20.5312 21.2285C20.0104 21.5931 19.3659 21.8177 18.5977 21.9023C18.1159 21.9544 16.9538 21.987 15.1113 22H10.2383V7.68359ZM13.1289 10.0664V13.377H15.0234C16.1497 13.377 16.8496 13.3607 17.123 13.3281C17.6178 13.2695 18.0052 13.1003 18.2852 12.8203C18.5716 12.5339 18.7148 12.1595 18.7148 11.6973C18.7148 11.2546 18.5911 10.8965 18.3438 10.623C18.1029 10.3431 17.7415 10.1738 17.2598 10.1152C16.9733 10.0827 16.1497 10.0664 14.7891 10.0664H13.1289ZM13.1289 15.7598V19.5879H15.8047C16.8464 19.5879 17.5072 19.5586 17.7871 19.5C18.2168 19.4219 18.5651 19.2331 18.832 18.9336C19.1055 18.6276 19.2422 18.2207 19.2422 17.7129C19.2422 17.2832 19.138 16.9186 18.9297 16.6191C18.7214 16.3197 18.4186 16.1016 18.0215 15.9648C17.6309 15.8281 16.778 15.7598 15.4629 15.7598H13.1289Z" fill="url(#paint2_linear_150_90)"/>
</g>
<defs>
<linearGradient id="paint0_linear_150_90" x1="16" y1="1.5" x2="16" y2="30" gradientUnits="userSpaceOnUse">
<stop stop-color="#BBF5BB"/>
<stop offset="0.5" stop-color="#5DDF5D"/>
<stop offset="0.5" stop-color="#00DE00"/>
<stop offset="1" stop-color="#00B700"/>
</linearGradient>
<linearGradient id="paint1_linear_150_90" x1="16" y1="0" x2="16" y2="32" gradientUnits="userSpaceOnUse">
<stop stop-color="#00AC00"/>
<stop offset="1" stop-color="#00FA00"/>
</linearGradient>
<linearGradient id="paint2_linear_150_90" x1="16" y1="7.5" x2="16" y2="22" gradientUnits="userSpaceOnUse">
<stop stop-color="#EBFFEB"/>
<stop offset="0.582056" stop-color="#AEFFAE"/>
<stop offset="0.59" stop-color="#8FFF8F"/>
<stop offset="1" stop-color="#71FF71"/>
</linearGradient>
<clipPath id="clip0_150_90">
<rect width="32" height="32" fill="white"/>
</clipPath>
</defs>
</svg>
