<svg width="32" height="32" viewBox="0 0 32 32" fill="none" xmlns="http://www.w3.org/2000/svg">
<g clip-path="url(#clip0_152_69)">
<circle cx="16" cy="16" r="15.5" fill="url(#paint0_radial_152_69)" stroke="#424242"/>
<mask id="mask0_152_69" style="mask-type:alpha" maskUnits="userSpaceOnUse" x="0" y="0" width="32" height="32">
<circle cx="16" cy="16" r="15.5" fill="white" stroke="#424242"/>
</mask>
<g mask="url(#mask0_152_69)">
<path d="M-1.5 19.4238L-1.08203 19.4932L10.5664 21.4336L12.5068 33.082L12.5762 33.5H19.4238L19.4932 33.082L21.4346 21.4336L33.082 19.4932L33.5 19.4238V12.5762L33.082 12.5068L21.4346 10.5654L19.4932 -1.08203L19.4238 -1.5H12.5762L12.5068 -1.08203L10.5664 10.5654L-1.08203 12.5068L-1.5 12.5762V19.4238Z" fill="#6D6D6D"/>
<path d="M-1.5 19.4238L-1.08203 19.4932L10.5664 21.4336L12.5068 33.082L12.5762 33.5H19.4238L19.4932 33.082L21.4346 21.4336L33.082 19.4932L33.5 19.4238V12.5762L33.082 12.5068L21.4346 10.5654L19.4932 -1.08203L19.4238 -1.5H12.5762L12.5068 -1.08203L10.5664 10.5654L-1.08203 12.5068L-1.5 12.5762V19.4238Z" fill="url(#paint1_linear_152_69)" fill-opacity="0.5"/>
<path d="M-1.5 19.4238L-1.08203 19.4932L10.5664 21.4336L12.5068 33.082L12.5762 33.5H19.4238L19.4932 33.082L21.4346 21.4336L33.082 19.4932L33.5 19.4238V12.5762L33.082 12.5068L21.4346 10.5654L19.4932 -1.08203L19.4238 -1.5H12.5762L12.5068 -1.08203L10.5664 10.5654L-1.08203 12.5068L-1.5 12.5762V19.4238Z" stroke="#575757"/>
<path d="M33.5 19.4238L33.082 19.4932L21.082 21.4932L20.8281 21.5352L15.293 16L20.8281 10.4648L21.082 10.5068L33.082 12.5068L33.5 12.5762V19.4238Z" fill="url(#paint2_linear_152_69)" stroke="url(#paint3_linear_152_69)"/>
<circle cx="16" cy="16" r="15.5" stroke="#424242"/>
</g>
</g>
<defs>
<radialGradient id="paint0_radial_152_69" cx="0" cy="0" r="1" gradientUnits="userSpaceOnUse" gradientTransform="translate(16 16) rotate(90) scale(16)">
<stop stop-color="#7A7A7A"/>
<stop offset="1" stop-color="#626262"/>
</radialGradient>
<linearGradient id="paint1_linear_152_69" x1="16" y1="-1" x2="16" y2="33" gradientUnits="userSpaceOnUse">
<stop stop-color="white"/>
<stop offset="0.5" stop-color="white" stop-opacity="0.5"/>
<stop offset="0.5" stop-color="white" stop-opacity="0.25"/>
<stop offset="1" stop-color="white" stop-opacity="0"/>
</linearGradient>
<linearGradient id="paint2_linear_152_69" x1="33" y1="16" x2="16" y2="16" gradientUnits="userSpaceOnUse">
<stop stop-color="#20BCFF"/>
<stop offset="1" stop-color="#0063ED"/>
</linearGradient>
<linearGradient id="paint3_linear_152_69" x1="33" y1="16" x2="16" y2="16" gradientUnits="userSpaceOnUse">
<stop stop-color="#0063ED"/>
<stop offset="1" stop-color="#3B63A8"/>
</linearGradient>
<clipPath id="clip0_152_69">
<rect width="32" height="32" fill="white"/>
</clipPath>
</defs>
</svg>
