<svg width="32" height="32" viewBox="0 0 32 32" fill="none" xmlns="http://www.w3.org/2000/svg">
<path d="M14.5603 1.41832C14.3088 0.741699 14.8099 0 15.5318 0H31C31.5523 0 32 0.447715 32 1V31C32 31.5523 31.5524 32 31.0002 32C28.7138 32 23.1102 32 20.624 32C20.0718 32 19.6255 31.5476 19.6199 30.9954C19.4672 16.0621 15.9524 5.16294 14.5603 1.41832Z" fill="url(#paint0_linear_153_154)"/>
<path d="M23.6094 17.1016H22.7969V20.7812C22.7969 21.2656 22.6901 21.6224 22.4766 21.8516C22.263 22.0807 21.9844 22.1953 21.6406 22.1953C21.2708 22.1953 20.9844 22.0755 20.7812 21.8359C20.5781 21.5964 20.4766 21.2448 20.4766 20.7812V11.9688C20.4766 11.4688 20.5885 11.1068 20.8125 10.8828C21.0365 10.6589 21.3984 10.5469 21.8984 10.5469H25.6719C26.1927 10.5469 26.638 10.5703 27.0078 10.6172C27.3776 10.6589 27.7109 10.7474 28.0078 10.8828C28.3672 11.0339 28.6849 11.25 28.9609 11.5312C29.237 11.8125 29.4453 12.1406 29.5859 12.5156C29.7318 12.8854 29.8047 13.2786 29.8047 13.6953C29.8047 14.5495 29.5625 15.2318 29.0781 15.7422C28.599 16.2526 27.8698 16.6146 26.8906 16.8281C27.3021 17.0469 27.6953 17.3698 28.0703 17.7969C28.4453 18.224 28.7786 18.6797 29.0703 19.1641C29.3672 19.6432 29.5964 20.0781 29.7578 20.4688C29.9245 20.8542 30.0078 21.1198 30.0078 21.2656C30.0078 21.4167 29.9583 21.5677 29.8594 21.7188C29.7656 21.8646 29.6354 21.9792 29.4688 22.0625C29.3021 22.151 29.1094 22.1953 28.8906 22.1953C28.6302 22.1953 28.4115 22.1328 28.2344 22.0078C28.0573 21.888 27.9036 21.7344 27.7734 21.5469C27.6484 21.3594 27.4766 21.0833 27.2578 20.7188L26.3281 19.1719C25.9948 18.6042 25.6953 18.1719 25.4297 17.875C25.1693 17.5781 24.9036 17.375 24.6328 17.2656C24.362 17.1562 24.0208 17.1016 23.6094 17.1016ZM24.9375 12.2891H22.7969V15.4375H24.875C25.4323 15.4375 25.901 15.3906 26.2812 15.2969C26.6615 15.1979 26.9505 15.0339 27.1484 14.8047C27.3516 14.5703 27.4531 14.25 27.4531 13.8438C27.4531 13.526 27.3724 13.2474 27.2109 13.0078C27.0495 12.763 26.8255 12.5807 26.5391 12.4609C26.2682 12.3464 25.7344 12.2891 24.9375 12.2891Z" fill="url(#paint1_linear_153_154)"/>
<path d="M10.7071 12.7071L15.3169 17.3169C15.6979 17.6979 15.7085 18.3123 15.3408 18.7063L10.7311 23.6453C10.1118 24.3088 9 23.8706 9 22.963V21C9 20.4477 8.55228 20 8 20H3C2.44772 20 2 19.5523 2 19V17C2 16.4477 2.44772 16 3 16H8C8.55228 16 9 15.5523 9 15V13.4142C9 12.5233 10.0771 12.0771 10.7071 12.7071Z" fill="url(#paint2_linear_153_154)"/>
<defs>
<linearGradient id="paint0_linear_153_154" x1="23" y1="0" x2="23" y2="32" gradientUnits="userSpaceOnUse">
<stop stop-color="white"/>
<stop offset="1" stop-color="#BBBBBB"/>
</linearGradient>
<linearGradient id="paint1_linear_153_154" x1="25" y1="11" x2="25" y2="20" gradientUnits="userSpaceOnUse">
<stop stop-color="#737373"/>
<stop offset="1" stop-color="#989898"/>
</linearGradient>
<linearGradient id="paint2_linear_153_154" x1="15" y1="18" x2="2" y2="18" gradientUnits="userSpaceOnUse">
<stop stop-color="#20BCFF"/>
<stop offset="1" stop-color="#0063ED"/>
</linearGradient>
</defs>
</svg>
