<svg width="32" height="32" viewBox="0 0 32 32" fill="none" xmlns="http://www.w3.org/2000/svg">
<g clip-path="url(#clip0_152_56)">
<circle cx="16" cy="16" r="15.5" fill="url(#paint0_radial_152_56)" stroke="#424242"/>
<mask id="mask0_152_56" style="mask-type:alpha" maskUnits="userSpaceOnUse" x="0" y="0" width="32" height="32">
<circle cx="16" cy="16" r="15.5" fill="white" stroke="#424242"/>
</mask>
<g mask="url(#mask0_152_56)">
<path d="M33.5 19.4238L33.082 19.4932L21.4336 21.4336L19.4932 33.082L19.4238 33.5H12.5762L12.5068 33.082L10.5654 21.4336L-1.08203 19.4932L-1.5 19.4238V12.5762L-1.08203 12.5068L10.5654 10.5654L12.5068 -1.08203L12.5762 -1.5H19.4238L19.4932 -1.08203L21.4336 10.5654L33.082 12.5068L33.5 12.5762V19.4238Z" fill="#6D6D6D"/>
<path d="M33.5 19.4238L33.082 19.4932L21.4336 21.4336L19.4932 33.082L19.4238 33.5H12.5762L12.5068 33.082L10.5654 21.4336L-1.08203 19.4932L-1.5 19.4238V12.5762L-1.08203 12.5068L10.5654 10.5654L12.5068 -1.08203L12.5762 -1.5H19.4238L19.4932 -1.08203L21.4336 10.5654L33.082 12.5068L33.5 12.5762V19.4238Z" fill="url(#paint1_linear_152_56)" fill-opacity="0.5"/>
<path d="M33.5 19.4238L33.082 19.4932L21.4336 21.4336L19.4932 33.082L19.4238 33.5H12.5762L12.5068 33.082L10.5654 21.4336L-1.08203 19.4932L-1.5 19.4238V12.5762L-1.08203 12.5068L10.5654 10.5654L12.5068 -1.08203L12.5762 -1.5H19.4238L19.4932 -1.08203L21.4336 10.5654L33.082 12.5068L33.5 12.5762V19.4238Z" stroke="#575757"/>
<path d="M19.4238 33.5L19.4932 33.082L21.4932 21.082L21.5352 20.8281L16 15.293L10.4648 20.8281L10.5068 21.082L12.5068 33.082L12.5762 33.5H19.4238Z" fill="url(#paint2_linear_152_56)" stroke="url(#paint3_linear_152_56)"/>
<circle cx="16" cy="16" r="15.5" stroke="#424242"/>
</g>
</g>
<defs>
<radialGradient id="paint0_radial_152_56" cx="0" cy="0" r="1" gradientUnits="userSpaceOnUse" gradientTransform="translate(16 16) rotate(90) scale(16)">
<stop stop-color="#7A7A7A"/>
<stop offset="1" stop-color="#626262"/>
</radialGradient>
<linearGradient id="paint1_linear_152_56" x1="16" y1="-1" x2="16" y2="33" gradientUnits="userSpaceOnUse">
<stop stop-color="white"/>
<stop offset="0.5" stop-color="white" stop-opacity="0.5"/>
<stop offset="0.5" stop-color="white" stop-opacity="0.25"/>
<stop offset="1" stop-color="white" stop-opacity="0"/>
</linearGradient>
<linearGradient id="paint2_linear_152_56" x1="16" y1="33" x2="16" y2="16" gradientUnits="userSpaceOnUse">
<stop stop-color="#20BCFF"/>
<stop offset="1" stop-color="#0063ED"/>
</linearGradient>
<linearGradient id="paint3_linear_152_56" x1="16" y1="33" x2="16" y2="16" gradientUnits="userSpaceOnUse">
<stop stop-color="#0063ED"/>
<stop offset="1" stop-color="#3B63A8"/>
</linearGradient>
<clipPath id="clip0_152_56">
<rect width="32" height="32" fill="white"/>
</clipPath>
</defs>
</svg>
