<svg width="32" height="32" viewBox="0 0 32 32" fill="none" xmlns="http://www.w3.org/2000/svg">
<g clip-path="url(#clip0_153_169)">
<path d="M21.2929 8.70711L16.6831 13.3169C16.3021 13.6979 15.6877 13.7085 15.2937 13.3408L10.3547 8.73105C9.69118 8.11177 10.1294 7 11.037 7H13C13.5523 7 14 6.55228 14 6V1C14 0.447715 14.4477 0 15 0H17C17.5523 0 18 0.447715 18 1V6C18 6.55228 18.4477 7 19 7H20.5858C21.4767 7 21.9229 8.07714 21.2929 8.70711Z" fill="url(#paint0_linear_153_169)"/>
<path d="M0 30C0 31.1046 0.895431 32 2 32H30C31.1046 32 32 31.1046 32 30V26C32 24.6868 31.7418 23.3861 31.2393 22.1729C30.7367 20.9596 29.9998 19.8573 29.0713 18.9287C28.1427 18.0002 27.0404 17.2633 25.8271 16.7607C24.6139 16.2582 23.3132 16 22 16H2C0.89543 16 0 16.8954 0 18V30Z" fill="url(#paint1_linear_153_169)"/>
<path d="M14.6094 25.1016H13.7969V28.7812C13.7969 29.2656 13.6901 29.6224 13.4766 29.8516C13.263 30.0807 12.9844 30.1953 12.6406 30.1953C12.2708 30.1953 11.9844 30.0755 11.7812 29.8359C11.5781 29.5964 11.4766 29.2448 11.4766 28.7812V19.9688C11.4766 19.4688 11.5885 19.1068 11.8125 18.8828C12.0365 18.6589 12.3984 18.5469 12.8984 18.5469H16.6719C17.1927 18.5469 17.638 18.5703 18.0078 18.6172C18.3776 18.6589 18.7109 18.7474 19.0078 18.8828C19.3672 19.0339 19.6849 19.25 19.9609 19.5312C20.237 19.8125 20.4453 20.1406 20.5859 20.5156C20.7318 20.8854 20.8047 21.2786 20.8047 21.6953C20.8047 22.5495 20.5625 23.2318 20.0781 23.7422C19.599 24.2526 18.8698 24.6146 17.8906 24.8281C18.3021 25.0469 18.6953 25.3698 19.0703 25.7969C19.4453 26.224 19.7786 26.6797 20.0703 27.1641C20.3672 27.6432 20.5964 28.0781 20.7578 28.4688C20.9245 28.8542 21.0078 29.1198 21.0078 29.2656C21.0078 29.4167 20.9583 29.5677 20.8594 29.7188C20.7656 29.8646 20.6354 29.9792 20.4688 30.0625C20.3021 30.151 20.1094 30.1953 19.8906 30.1953C19.6302 30.1953 19.4115 30.1328 19.2344 30.0078C19.0573 29.888 18.9036 29.7344 18.7734 29.5469C18.6484 29.3594 18.4766 29.0833 18.2578 28.7188L17.3281 27.1719C16.9948 26.6042 16.6953 26.1719 16.4297 25.875C16.1693 25.5781 15.9036 25.375 15.6328 25.2656C15.362 25.1562 15.0208 25.1016 14.6094 25.1016ZM15.9375 20.2891H13.7969V23.4375H15.875C16.4323 23.4375 16.901 23.3906 17.2812 23.2969C17.6615 23.1979 17.9505 23.0339 18.1484 22.8047C18.3516 22.5703 18.4531 22.25 18.4531 21.8438C18.4531 21.526 18.3724 21.2474 18.2109 21.0078C18.0495 20.763 17.8255 20.5807 17.5391 20.4609C17.2682 20.3464 16.7344 20.2891 15.9375 20.2891Z" fill="url(#paint2_linear_153_169)"/>
</g>
<defs>
<linearGradient id="paint0_linear_153_169" x1="16" y1="13" x2="16" y2="0" gradientUnits="userSpaceOnUse">
<stop stop-color="#20BCFF"/>
<stop offset="1" stop-color="#0063ED"/>
</linearGradient>
<linearGradient id="paint1_linear_153_169" x1="16" y1="16" x2="16" y2="32" gradientUnits="userSpaceOnUse">
<stop stop-color="white"/>
<stop offset="1" stop-color="#BBBBBB"/>
</linearGradient>
<linearGradient id="paint2_linear_153_169" x1="16" y1="21.3333" x2="16" y2="26.1333" gradientUnits="userSpaceOnUse">
<stop stop-color="#737373"/>
<stop offset="1" stop-color="#989898"/>
</linearGradient>
<clipPath id="clip0_153_169">
<rect width="32" height="32" fill="white"/>
</clipPath>
</defs>
</svg>
